<svg width="24" height="24" viewBox="0 0 24 24" fill="none" xmlns="http://www.w3.org/2000/svg">
<path d="M15.0659 11.6503C15.7907 11.1732 16.651 10.9447 17.517 10.9992C18.383 11.0538 19.2078 11.3886 19.867 11.9529C20.5261 12.5173 20.9838 13.2807 21.1711 14.128C21.3584 14.9753 21.2651 15.8605 20.9053 16.6501C20.5454 17.4397 19.9386 18.0909 19.1762 18.5054C18.4139 18.9199 17.5375 19.0753 16.6791 18.9481C15.8207 18.8209 15.027 18.4181 14.4177 17.8003C13.8083 17.1825 13.4163 16.3833 13.3009 15.5233C12.9359 13.7313 12.7939 11.5763 13.5079 9.62532C14.2739 7.53532 15.9719 5.82132 19.0129 5.02532C19.2664 4.96709 19.5325 5.00985 19.7549 5.14454C19.9773 5.27923 20.1385 5.49526 20.2043 5.74681C20.2701 5.99835 20.2354 6.26565 20.1074 6.492C19.9795 6.71836 19.7684 6.88598 19.5189 6.95932C17.0589 7.60332 15.9089 8.88932 15.3859 10.3133C15.2309 10.7383 15.1259 11.1873 15.0659 11.6513" fill="#F15D27"/>
<path d="M5.06643 11.6513C5.79121 11.1742 6.65149 10.9456 7.51751 11.0002C8.38353 11.0548 9.20832 11.3895 9.86745 11.9539C10.5266 12.5183 10.9843 13.2817 11.1716 14.129C11.3589 14.9762 11.2656 15.8614 10.9058 16.6511C10.5459 17.4407 9.93906 18.0918 9.17674 18.5064C8.41442 18.9209 7.53797 19.0763 6.6796 18.9491C5.82124 18.8219 5.02751 18.419 4.41815 17.8013C3.80878 17.1835 3.41684 16.3843 3.30143 15.5243C2.93643 13.7323 2.79443 11.5773 3.50843 9.62629C4.27443 7.53629 5.97243 5.82229 9.01343 5.02629C9.26684 4.96807 9.53297 5.01083 9.75538 5.14552C9.97779 5.28021 10.139 5.49623 10.2048 5.74778C10.2706 5.99933 10.2359 6.26662 10.1079 6.49298C9.97997 6.71934 9.76889 6.88695 9.51943 6.96029C7.05943 7.60429 5.90943 8.89029 5.38643 10.3143C5.23143 10.7393 5.12643 11.1883 5.06643 11.6523" fill="#F15D27"/>
</svg>
