<svg width="189" height="40" viewBox="0 0 189 40" fill="none" xmlns="http://www.w3.org/2000/svg">
<path d="M25.9171 11.3406C27.5254 10.4907 28.8717 9.21859 29.8113 7.66095C30.7509 6.10332 31.2483 4.31908 31.2499 2.5C31.2499 2.16848 31.1182 1.85054 30.8838 1.61612C30.6494 1.3817 30.3314 1.25 29.9999 1.25H28.7499C26.9629 1.25068 25.2088 1.73019 23.6699 2.63865C22.1311 3.54712 20.8638 4.85134 19.9999 6.41563C19.136 4.85134 17.8687 3.54712 16.3299 2.63865C14.7911 1.73019 13.0369 1.25068 11.2499 1.25H9.99993C9.66841 1.25 9.35047 1.3817 9.11604 1.61612C8.88162 1.85054 8.74993 2.16848 8.74993 2.5C8.74993 2.83152 8.88162 3.14946 9.11604 3.38388C9.35047 3.6183 9.66841 3.75 9.99993 3.75H11.2499C13.0331 3.75244 14.7573 4.38912 16.1142 5.54617C17.471 6.70322 18.3721 8.30519 18.6562 10.0656C15.3475 10.3895 12.2682 11.9011 9.98827 14.3207C7.70838 16.7403 6.38233 19.904 6.25561 23.2261C6.12888 26.5482 7.21006 29.8037 9.29899 32.3899C11.3879 34.9762 14.3431 36.718 17.6175 37.293C20.8919 37.868 24.2638 37.2372 27.1089 35.5173C29.9539 33.7975 32.0795 31.105 33.0922 27.9385C34.1049 24.772 33.936 21.3458 32.6168 18.2942C31.2976 15.2426 28.9175 12.7723 25.9171 11.3406ZM28.6452 3.75C28.3504 5.47886 27.4601 7.05013 26.1286 8.1916C24.7971 9.33306 23.1082 9.97281 21.3546 10C21.6494 8.27114 22.5397 6.69987 23.8713 5.5584C25.2028 4.41694 26.8916 3.77719 28.6452 3.75ZM28.7327 25.2063C28.4112 27.0184 27.5409 28.6881 26.2395 29.9895C24.938 31.2909 23.2683 32.1613 21.4562 32.4828C21.388 32.4939 21.319 32.4996 21.2499 32.5C20.9365 32.4995 20.6347 32.3813 20.4043 32.1688C20.1739 31.9564 20.0318 31.6651 20.006 31.3527C19.9803 31.0403 20.0728 30.7297 20.2653 30.4824C20.4578 30.235 20.7361 30.069 21.0452 30.0172C22.346 29.7861 23.5444 29.1612 24.4785 28.2271C25.4127 27.2929 26.0376 26.0945 26.2687 24.7937C26.3261 24.4693 26.5092 24.1806 26.7784 23.9905C27.0475 23.8003 27.3808 23.7242 27.7058 23.7786C28.0308 23.8329 28.3212 24.0134 28.5138 24.2808C28.7064 24.5482 28.7857 24.8808 28.7343 25.2063H28.7327Z" fill="#F15D27"/>
<path d="M38.488 20.28H41.8V22.704C42.216 20.912 43.4 20.016 45.352 20.016C45.656 20.016 45.872 20.016 46 20.016L46.024 23.28C45.624 23.2 45.208 23.16 44.776 23.16C43.688 23.16 42.936 23.36 42.52 23.76C42.04 24.208 41.8 25.016 41.8 26.184V33H38.488V20.28ZM58.5241 32.16V33H54.9241C54.6841 32.696 54.5561 32.264 54.5401 31.704C53.6601 32.744 52.3801 33.264 50.7001 33.264C49.4681 33.264 48.4761 32.888 47.7241 32.136C47.1161 31.528 46.8121 30.688 46.8121 29.616C46.8121 28.016 47.4521 26.88 48.7321 26.208C49.2761 25.92 50.3561 25.632 51.9721 25.344L54.5641 24.864L54.5401 23.952C54.5241 23.104 53.8841 22.68 52.6201 22.68C51.8041 22.68 51.2281 22.808 50.8921 23.064C50.5721 23.304 50.3721 23.752 50.2921 24.408H47.1241C47.3161 21.48 49.1241 20.016 52.5481 20.016C54.4361 20.016 55.7961 20.352 56.6281 21.024C57.3801 21.664 57.7561 22.632 57.7561 23.928V31.032C57.7561 31.608 58.0121 31.984 58.5241 32.16ZM54.5641 26.856L52.1401 27.408C51.4521 27.568 50.9401 27.8 50.6041 28.104C50.2841 28.408 50.1241 28.784 50.1241 29.232C50.1241 30.144 50.7161 30.6 51.9001 30.6C53.6121 30.6 54.4921 29.664 54.5401 27.792L54.5641 26.856ZM60.7536 20.28H64.0656V22.08C64.9616 20.704 66.2256 20.016 67.8576 20.016C69.3136 20.016 70.4176 20.448 71.1696 21.312C71.8096 22.08 72.1296 23.12 72.1296 24.432V33H68.8416V25.104C68.8416 23.584 68.1296 22.824 66.7056 22.824C65.9056 22.824 65.2656 23.056 64.7856 23.52C64.3056 23.968 64.0656 24.568 64.0656 25.32V33H60.7536V20.28ZM83.2317 20.28H86.3757V32.88C86.3757 34.848 85.7597 36.256 84.5277 37.104C83.4877 37.792 82.0637 38.136 80.2557 38.136C78.3677 38.136 76.9277 37.728 75.9357 36.912C75.1197 36.256 74.6957 35.464 74.6637 34.536H78.0717C78.3437 35.528 79.1277 36.024 80.4237 36.024C81.2397 36.024 81.9277 35.768 82.4877 35.256C82.9837 34.808 83.2317 34.112 83.2317 33.168V31.272C82.6237 32.024 82.0557 32.544 81.5277 32.832C80.9997 33.12 80.3597 33.264 79.6077 33.264C77.9597 33.264 76.6557 32.592 75.6957 31.248C74.8477 30.096 74.4237 28.632 74.4237 26.856C74.4237 24.76 74.9917 23.048 76.1277 21.72C77.1197 20.584 78.3197 20.016 79.7277 20.016C81.1037 20.016 82.2717 20.68 83.2317 22.008V20.28ZM80.3997 22.776C79.5997 22.776 78.9517 23.144 78.4557 23.88C77.9757 24.616 77.7357 25.576 77.7357 26.76C77.7357 27.896 77.9757 28.808 78.4557 29.496C78.9517 30.184 79.5997 30.528 80.3997 30.528C81.2317 30.528 81.9197 30.176 82.4637 29.472C82.9757 28.816 83.2317 27.904 83.2317 26.736C83.2317 25.472 82.9357 24.472 82.3437 23.736C81.8317 23.096 81.1837 22.776 80.3997 22.776ZM100.575 27.504H92.0314C92.0794 28.528 92.2394 29.256 92.5114 29.688C92.9754 30.392 93.7034 30.744 94.6954 30.744C95.9274 30.744 96.7514 30.232 97.1674 29.208H100.431C100.063 30.456 99.3434 31.448 98.2714 32.184C97.2154 32.904 95.9754 33.264 94.5514 33.264C92.6154 33.264 91.1274 32.616 90.0874 31.32C89.1754 30.184 88.7194 28.688 88.7194 26.832C88.7194 24.576 89.3114 22.832 90.4954 21.6C91.5354 20.544 92.9034 20.016 94.5994 20.016C95.8954 20.016 97.0314 20.336 98.0074 20.976C98.9834 21.616 99.6794 22.512 100.095 23.664C100.431 24.56 100.599 25.64 100.599 26.904C100.599 27.064 100.591 27.264 100.575 27.504ZM97.1434 25.32C96.9834 23.464 96.1274 22.536 94.5754 22.536C93.1194 22.536 92.2874 23.464 92.0794 25.32H97.1434ZM111.164 15.816V30.048H119.396V33H107.636V15.816H111.164ZM132.286 27.504H123.742C123.79 28.528 123.95 29.256 124.222 29.688C124.686 30.392 125.414 30.744 126.406 30.744C127.638 30.744 128.462 30.232 128.878 29.208H132.142C131.774 30.456 131.054 31.448 129.982 32.184C128.926 32.904 127.686 33.264 126.262 33.264C124.326 33.264 122.838 32.616 121.798 31.32C120.886 30.184 120.43 28.688 120.43 26.832C120.43 24.576 121.022 22.832 122.206 21.6C123.246 20.544 124.614 20.016 126.31 20.016C127.606 20.016 128.742 20.336 129.718 20.976C130.694 21.616 131.39 22.512 131.806 23.664C132.142 24.56 132.31 25.64 132.31 26.904C132.31 27.064 132.302 27.264 132.286 27.504ZM128.854 25.32C128.694 23.464 127.838 22.536 126.286 22.536C124.83 22.536 123.998 23.464 123.79 25.32H128.854ZM145.501 32.16V33H141.901C141.661 32.696 141.533 32.264 141.517 31.704C140.637 32.744 139.357 33.264 137.677 33.264C136.445 33.264 135.453 32.888 134.701 32.136C134.093 31.528 133.789 30.688 133.789 29.616C133.789 28.016 134.429 26.88 135.709 26.208C136.253 25.92 137.333 25.632 138.949 25.344L141.541 24.864L141.517 23.952C141.501 23.104 140.861 22.68 139.597 22.68C138.781 22.68 138.205 22.808 137.869 23.064C137.549 23.304 137.349 23.752 137.269 24.408H134.101C134.293 21.48 136.101 20.016 139.525 20.016C141.413 20.016 142.773 20.352 143.605 21.024C144.357 21.664 144.733 22.632 144.733 23.928V31.032C144.733 31.608 144.989 31.984 145.501 32.16ZM141.541 26.856L139.117 27.408C138.429 27.568 137.917 27.8 137.581 28.104C137.261 28.408 137.101 28.784 137.101 29.232C137.101 30.144 137.693 30.6 138.877 30.6C140.589 30.6 141.469 29.664 141.517 27.792L141.541 26.856ZM155.794 20.28H158.938V32.88C158.938 34.848 158.322 36.256 157.09 37.104C156.05 37.792 154.626 38.136 152.818 38.136C150.93 38.136 149.49 37.728 148.498 36.912C147.682 36.256 147.258 35.464 147.226 34.536H150.634C150.906 35.528 151.69 36.024 152.986 36.024C153.802 36.024 154.49 35.768 155.05 35.256C155.546 34.808 155.794 34.112 155.794 33.168V31.272C155.186 32.024 154.618 32.544 154.09 32.832C153.562 33.12 152.922 33.264 152.17 33.264C150.522 33.264 149.218 32.592 148.258 31.248C147.41 30.096 146.986 28.632 146.986 26.856C146.986 24.76 147.554 23.048 148.69 21.72C149.682 20.584 150.882 20.016 152.29 20.016C153.666 20.016 154.834 20.68 155.794 22.008V20.28ZM152.962 22.776C152.162 22.776 151.514 23.144 151.018 23.88C150.538 24.616 150.298 25.576 150.298 26.76C150.298 27.896 150.538 28.808 151.018 29.496C151.514 30.184 152.162 30.528 152.962 30.528C153.794 30.528 154.482 30.176 155.026 29.472C155.538 28.816 155.794 27.904 155.794 26.736C155.794 25.472 155.498 24.472 154.906 23.736C154.394 23.096 153.746 22.776 152.962 22.776ZM173.33 33H170.042V31.2C169.146 32.576 167.874 33.264 166.226 33.264C164.77 33.264 163.666 32.832 162.914 31.968C162.274 31.216 161.954 30.184 161.954 28.872V20.28H165.266V28.176C165.266 29.696 165.97 30.456 167.378 30.456C168.178 30.456 168.818 30.232 169.298 29.784C169.794 29.336 170.042 28.728 170.042 27.96V20.28H173.33V33ZM187.529 27.504H178.985C179.033 28.528 179.193 29.256 179.465 29.688C179.929 30.392 180.657 30.744 181.649 30.744C182.881 30.744 183.705 30.232 184.121 29.208H187.385C187.017 30.456 186.297 31.448 185.225 32.184C184.169 32.904 182.929 33.264 181.505 33.264C179.569 33.264 178.081 32.616 177.041 31.32C176.129 30.184 175.673 28.688 175.673 26.832C175.673 24.576 176.265 22.832 177.449 21.6C178.489 20.544 179.857 20.016 181.553 20.016C182.849 20.016 183.985 20.336 184.961 20.976C185.937 21.616 186.633 22.512 187.049 23.664C187.385 24.56 187.553 25.64 187.553 26.904C187.553 27.064 187.545 27.264 187.529 27.504ZM184.097 25.32C183.937 23.464 183.081 22.536 181.529 22.536C180.073 22.536 179.241 23.464 179.033 25.32H184.097Z" fill="#F15D27"/>
</svg>
