<svg width="31" height="24" viewBox="0 0 31 24" fill="none" xmlns="http://www.w3.org/2000/svg">
<path d="M22.9424 5.34003C21.6307 4.7058 20.2431 4.25515 18.8163 4C18.6385 4.33208 18.4309 4.77873 18.2877 5.13406C16.7492 4.89499 15.2249 4.89499 13.7148 5.13406C13.5717 4.77881 13.3593 4.33208 13.1799 4C11.7516 4.25527 10.3629 4.70706 9.05064 5.34334C6.43939 9.42139 5.7315 13.398 6.0854 17.3184C7.81736 18.655 9.49579 19.467 11.1459 19.9984C11.5561 19.4155 11.9186 18.7985 12.2298 18.1536C11.6373 17.9205 11.0661 17.6332 10.5231 17.2952C10.666 17.1857 10.8055 17.0716 10.9415 16.9531C14.2323 18.5438 17.8079 18.5438 21.0595 16.9531C21.196 17.0708 21.3355 17.1849 21.4778 17.2952C20.9339 17.6341 20.3616 17.9219 19.768 18.1553C20.0809 18.8028 20.4428 19.4205 20.8518 20C22.5035 19.4687 24.1835 18.6567 25.9155 17.3184C26.3308 12.7738 25.2061 8.83361 22.9424 5.34003ZM12.6781 14.9075C11.6902 14.9075 10.8801 13.9543 10.8801 12.7937C10.8801 11.6331 11.673 10.6783 12.6781 10.6783C13.6834 10.6783 14.4934 11.6314 14.4762 12.7937C14.4777 13.9543 13.6834 14.9075 12.6781 14.9075ZM19.3227 14.9075C18.3349 14.9075 17.5248 13.9543 17.5248 12.7937C17.5248 11.6331 18.3176 10.6783 19.3227 10.6783C20.328 10.6783 21.1381 11.6314 21.1208 12.7937C21.1208 13.9543 20.328 14.9075 19.3227 14.9075Z" fill="white"/>
</svg>
