<svg width="25" height="24" viewBox="0 0 25 24" fill="none" xmlns="http://www.w3.org/2000/svg">
<path d="M7.06494 5.00002C7.06468 5.53046 6.85371 6.03906 6.47845 6.41394C6.10319 6.78883 5.59437 6.99929 5.06394 6.99902C4.53351 6.99876 4.02491 6.78779 3.65002 6.41253C3.27514 6.03727 3.06468 5.52846 3.06494 4.99802C3.06521 4.46759 3.27617 3.95899 3.65144 3.5841C4.0267 3.20922 4.53551 2.99876 5.06594 2.99902C5.59637 2.99929 6.10498 3.21026 6.47986 3.58552C6.85475 3.96078 7.06521 4.46959 7.06494 5.00002ZM7.12494 8.48002H3.12494V21H7.12494V8.48002ZM13.4449 8.48002H9.46494V21H13.4049V14.43C13.4049 10.77 18.1749 10.43 18.1749 14.43V21H22.1249V13.07C22.1249 6.90002 15.0649 7.13002 13.4049 10.16L13.4449 8.48002Z" fill="white"/>
</svg>
