<svg width="25" height="24" viewBox="0 0 25 24" fill="none" xmlns="http://www.w3.org/2000/svg">
<path d="M22.5845 6C21.8145 6.35 20.9846 6.58 20.1245 6.69C21.0045 6.16 21.6846 5.32 22.0046 4.31C21.1746 4.81 20.2545 5.16 19.2845 5.36C18.4945 4.5 17.3846 4 16.1246 4C13.7746 4 11.8546 5.92 11.8546 8.29C11.8546 8.63 11.8946 8.96 11.9646 9.27C8.40455 9.09 5.23455 7.38 3.12455 4.79C2.75455 5.42 2.54455 6.16 2.54455 6.94C2.54455 8.43 3.29455 9.75 4.45455 10.5C3.74455 10.5 3.08455 10.3 2.50455 10V10.03C2.50455 12.11 3.98455 13.85 5.94455 14.24C5.31539 14.4129 4.65459 14.4369 4.01455 14.31C4.28616 15.1625 4.81809 15.9084 5.53557 16.4429C6.25305 16.9775 7.12 17.2737 8.01455 17.29C6.49822 18.4905 4.61856 19.1394 2.68455 19.13C2.34455 19.13 2.00455 19.11 1.66455 19.07C3.56455 20.29 5.82455 21 8.24455 21C16.1246 21 20.4546 14.46 20.4546 8.79C20.4546 8.6 20.4545 8.42 20.4445 8.23C21.2845 7.63 22.0045 6.87 22.5845 6Z" fill="white"/>
</svg>
