<svg width="1000" height="1000" viewBox="0 0 1000 1000" fill="none" xmlns="http://www.w3.org/2000/svg">
<path d="M862.93 689.31C876.02 670.59 888.86 643.94 898.79 611.36C907.79 581.92 910.23 558.36 911.69 543.76C914.526 514.847 914.19 485.71 910.69 456.87C901.113 380.885 870.81 309 823.1 249.09C807.79 230 766 181.5 695 143.65C657.846 123.757 617.898 109.597 576.51 101.65C458 79.5499 340.07 130.87 297.61 150.92L315.37 145.54L482.09 169.44L698.09 375.24L749.09 681.38L725.09 771.09L839.56 713.88C839.56 713.88 851.24 706 862.93 689.31Z" fill="url(#paint0_linear_2412_863)"/>
<path d="M656.43 741.9C676.55 752.96 693.23 760.63 706.03 768.4C709.03 770.24 714.33 773.48 720.77 772.65C726.39 771.94 731.62 768.3 740.61 755.93C749 744.41 753.68 734.93 758.19 725.93C773.81 694.69 772.01 699.93 776.05 690.78C782.408 676.25 787.711 661.282 791.92 645.99C796.961 627.51 800.47 608.647 802.41 589.59C804.909 566.814 805.668 543.881 804.68 520.99C803.952 502.164 802.055 483.401 799 464.81C793.407 431.572 783.594 399.184 769.8 368.43C750.66 326.74 728.55 299.29 715.09 282.83C669.56 227.13 622.68 197.47 612.19 190.98C604.28 186.09 570.81 165.8 522.05 149.88C473.79 134.13 435.25 130.62 423.97 129.76C398.76 127.81 382.49 126.56 360.48 130.04C303.66 139.04 263.92 170.79 239.72 190.13C227.126 200.315 215.195 211.294 204 223C173.27 254.948 147.988 291.719 129.16 331.85C123.41 344.24 100.55 395.19 93.7298 466.78C86.6698 541 100.67 597 104.24 610.51C112.433 641.534 124.427 671.427 139.95 699.51C138.723 694.597 137.496 689.683 136.27 684.77C133.67 677.84 131.27 670.4 129.09 662.47C126.75 653.87 120.09 627.32 120.39 587.26C120.61 561.52 168.39 404.52 221.87 351.98C246.32 327.98 288.48 285.67 364.17 270.34C386.41 265.84 443.38 251.34 506.44 278.15C573.65 319.68 607 364.23 617.31 383C653.13 448.6 647.45 509.16 646.15 522.23C638.92 594.66 603.43 641.86 589.43 657.54L588.68 684.75C588.68 684.75 589.24 704.17 614.9 718.75L656.43 741.9Z" fill="url(#paint1_linear_2412_863)"/>
<path d="M589.42 658.14C592.34 654.72 592.47 654.14 594.14 652.14C604.72 639.4 608.49 633.95 610.03 631.7C615.33 623.98 618.38 618.04 622.88 609.26C627.57 600.07 632.49 590.46 636.98 576.96C639.908 567.965 642.246 558.789 643.98 549.49C646.046 539.983 647.529 530.358 648.42 520.67C649.475 508.222 649.475 495.708 648.42 483.26C647.602 469.98 645.645 456.795 642.57 443.85C639.448 430.831 635.178 418.115 629.81 405.85C624.631 394.125 618.501 382.844 611.48 372.12C606.106 363.654 600.235 355.513 593.9 347.74C587.36 339.629 580.191 332.045 572.46 325.06C521.24 279.14 499.58 275.34 495.83 273.66C454.34 255.19 411.92 260.72 392.55 262.5C377.19 263.92 337.02 273.8 321.55 280.37C307.441 286.352 293.744 293.264 280.55 301.06C263.698 311.074 247.784 322.588 233 335.46C221.342 345.704 210.418 356.754 200.31 368.53C192.234 377.889 184.696 387.698 177.73 397.91C170.98 407.91 166.33 415.97 161.95 423.61C156.59 432.95 152.95 439.36 148.72 448.28C143.363 459.824 138.816 471.726 135.11 483.9C131.448 494.902 128.443 506.112 126.11 517.47C123.554 530.53 121.95 543.758 121.31 557.05C120.23 575.5 118.71 604.32 124.57 641.66C128.51 666.79 131.66 686.84 143.95 710.57C149.07 720.47 154.45 727.94 165.21 742.89C175.65 757.39 188.71 775.54 209.15 796.46C226.95 814.679 246.509 831.092 267.54 845.46C285.582 857.575 304.535 868.274 324.23 877.46C340.06 884.9 364.39 895.91 395.81 904.46C423.88 912.11 445.64 917.35 475.04 917.12C495.791 916.938 516.41 913.79 536.27 907.77L537.92 907.25L536 907C530.506 905.818 525.118 904.19 519.89 902.13C510.962 898.926 502.304 895.014 494 890.43C486.836 886.405 479.969 881.873 473.45 876.87C466.474 871.489 459.875 865.635 453.7 859.35C448.429 854.009 443.461 848.377 438.82 842.48L437.7 840.65C436.24 840.21 434.76 839.74 433.27 839.23C426.47 836.94 422.88 835.08 417.27 832.78C411.09 830.29 411.4 830.88 406.18 828.78C400.96 826.68 398.11 825.08 384.44 817.44C369.84 809.28 369.81 809.26 368.95 808.75C366.95 807.53 359.04 802.75 349.58 795.99C338.209 787.788 327.383 778.856 317.17 769.25C302.19 755.627 288.551 740.598 276.44 724.37C263.369 706.474 252.164 686.288 243 666.11C233.617 645.543 226.337 625.081 221.27 603.05C217.67 587.37 216.11 575.37 215.79 572.81C213.35 553.53 213.49 538.95 213.79 515.55C214.04 496.91 215.17 487.55 216.3 478.23C218.526 461.261 222.517 444.57 228.21 428.43C234.498 410.177 242.866 392.709 253.15 376.37C263.769 359.902 276.403 344.825 290.76 331.49C303.175 320.17 315.654 310.077 330.01 301.35C342.971 293.354 356.599 286.492 370.74 280.84C390.98 272.92 416.02 263.12 449.35 264.84C469.954 265.887 490.123 271.163 508.6 280.34C519.083 285.788 528.91 292.414 537.89 300.09C545.54 306.59 556.7 316.23 566.71 332.31C576.201 347.794 582.286 365.122 584.56 383.14C585.345 389.599 585.663 396.106 585.51 402.61C585.57 448 589.42 658.14 589.42 658.14Z" fill="url(#paint2_linear_2412_863)"/>
<path d="M446.85 264.5C431.301 263.83 415.732 265.226 400.55 268.65C373.45 274.79 354.7 285.87 338.09 295.65C322.474 304.796 307.82 315.494 294.35 327.58C265.252 353.999 242.87 386.974 229.06 423.77C218.23 452.65 215.7 476.02 213.94 493.32C207.827 556.222 219.412 619.581 247.39 676.25C259.009 699.628 273.41 722.517 290.28 742.44C305.577 760.158 322.668 776.244 341.28 790.44C352.76 799.25 370.44 812.77 397.1 825.38C408.918 831.008 421.11 835.813 433.59 839.76L437.86 840.94C437.42 840.18 435.58 837.94 434.73 836.58C433.34 834.34 432.32 832.82 431.29 831.27C431.29 831.27 430.81 830.54 427 824.62C424.29 820.41 415.54 804.5 411.77 794.88C402.69 768.66 403.97 750.32 403.92 747.3L404.04 308.3C403.963 306.968 403.963 305.632 404.04 304.3C404.16 302.719 404.37 301.147 404.67 299.59C405.861 293.642 408.157 287.971 411.44 282.87C414.913 278.024 419.413 274.004 424.62 271.1C431.388 267.137 439.016 264.873 446.85 264.5Z" fill="url(#paint3_linear_2412_863)"/>
<defs>
<linearGradient id="paint0_linear_2412_863" x1="1056" y1="509.5" x2="403.407" y2="506.141" gradientUnits="userSpaceOnUse">
<stop offset="0.209057" stop-color="#F05F1C"/>
<stop offset="0.387553" stop-color="#F0671A"/>
<stop offset="0.964679" stop-color="#ED8612"/>
</linearGradient>
<linearGradient id="paint1_linear_2412_863" x1="586.5" y1="528" x2="209.878" y2="466.553" gradientUnits="userSpaceOnUse">
<stop offset="0.235" stop-color="#F1561E"/>
<stop offset="1" stop-color="#E48112"/>
</linearGradient>
<linearGradient id="paint2_linear_2412_863" x1="120" y1="565.5" x2="641.5" y2="554.5" gradientUnits="userSpaceOnUse">
<stop stop-color="#FFD40D"/>
<stop offset="0.253209" stop-color="#F39F10"/>
<stop offset="0.819904" stop-color="#DF4C16"/>
<stop offset="0.838239" stop-color="#DF4C16"/>
</linearGradient>
<linearGradient id="paint3_linear_2412_863" x1="220.5" y1="496.5" x2="545.699" y2="520.352" gradientUnits="userSpaceOnUse">
<stop offset="0.189999" stop-color="#FABD0F"/>
<stop offset="1" stop-color="#DF4C16"/>
</linearGradient>
</defs>
</svg>
