<svg width="238" height="56" viewBox="0 0 238 56" fill="none" xmlns="http://www.w3.org/2000/svg">
<path d="M48.3239 38.6014C49.057 37.5531 49.776 36.0607 50.3321 34.2362C50.8361 32.5876 50.9727 31.2682 51.0545 30.4506C51.2133 28.8315 51.1945 27.1998 50.9985 25.5848C50.4622 21.3296 48.7652 17.304 46.0935 13.9491C45.2361 12.88 42.8959 10.164 38.9199 8.04445C36.8392 6.93044 34.6021 6.13748 32.2844 5.69245C25.6479 4.45484 19.0438 7.32877 16.666 8.45157L17.6606 8.15029L26.9969 9.48869L39.0929 21.0135L41.9489 38.1573L40.6049 43.1811L47.0152 39.9773C47.0152 39.9773 47.6693 39.536 48.3239 38.6014Z" fill="url(#paint0_linear_373_396)"/>
<path d="M36.7602 41.5463C37.8869 42.1657 38.821 42.5952 39.5378 43.0303C39.7058 43.1334 40.0026 43.3148 40.3632 43.2683C40.678 43.2286 40.9708 43.0247 41.4743 42.332C41.9441 41.6869 42.2062 41.156 42.4588 40.652C43.3335 38.9026 43.2327 39.196 43.4589 38.6836C43.815 37.8699 44.1119 37.0317 44.3476 36.1754C44.6299 35.1405 44.8264 34.0842 44.9351 33.017C45.075 31.7415 45.1175 30.4573 45.0622 29.1754C45.0214 28.1211 44.9152 27.0704 44.7441 26.0293C44.4309 24.168 43.8814 22.3542 43.1089 20.632C42.0371 18.2974 40.7989 16.7602 40.0452 15.8384C37.4955 12.7192 34.8702 11.0583 34.2828 10.6948C33.8398 10.421 31.9655 9.28475 29.2349 8.39323C26.5324 7.51123 24.3741 7.31466 23.7424 7.2665C22.3307 7.1573 21.4196 7.0873 20.187 7.28218C17.0051 7.78618 14.7796 9.56419 13.4244 10.6472C12.7192 11.2176 12.051 11.8324 11.4241 12.4879C9.70324 14.277 8.28745 16.3362 7.23308 18.5835C6.91108 19.2774 5.63092 22.1306 5.24899 26.1396C4.85363 30.2959 5.63764 33.4319 5.83756 34.1885C6.29637 35.9259 6.96803 37.5999 7.83732 39.1725C7.76861 38.8974 7.6999 38.6222 7.63124 38.3471C7.48564 37.959 7.35124 37.5423 7.22916 37.0983C7.09812 36.6167 6.72516 35.1299 6.74196 32.8865C6.75428 31.4451 9.42996 22.6531 12.4248 19.7108C13.794 18.3668 16.155 15.9975 20.3936 15.139C21.6391 14.887 24.8294 14.075 28.3608 15.5763C32.1245 17.902 33.9921 20.3968 34.5695 21.4479C36.5754 25.1215 36.2573 28.5129 36.1845 29.2448C35.7796 33.3009 33.7922 35.9441 33.0082 36.8222L32.9662 38.3459C32.9662 38.3459 32.9976 39.4335 34.4345 40.2499L36.7602 41.5463Z" fill="url(#paint1_linear_373_396)"/>
<path d="M33.0074 36.8558C33.1709 36.6643 33.1782 36.6318 33.2717 36.5198C33.8642 35.8064 34.0753 35.5012 34.1615 35.3752C34.4583 34.9429 34.6291 34.6102 34.8811 34.1185C35.1438 33.6039 35.4193 33.0657 35.6707 32.3097C35.8347 31.806 35.9656 31.2922 36.0627 30.7714C36.1784 30.239 36.2615 29.7 36.3114 29.1575C36.3704 28.4604 36.3704 27.7596 36.3114 27.0625C36.2655 26.3189 36.156 25.5805 35.9838 24.8556C35.8089 24.1265 35.5698 23.4144 35.2692 22.7276C34.9792 22.071 34.6359 21.4392 34.2427 20.8387C33.9418 20.3646 33.613 19.9087 33.2582 19.4734C32.892 19.0192 32.4905 18.5945 32.0576 18.2033C29.1893 15.6318 27.9763 15.419 27.7663 15.3249C25.4429 14.2906 23.0674 14.6003 21.9826 14.7C21.1225 14.7795 18.873 15.3328 18.0066 15.7007C17.2165 16.0357 16.4495 16.4228 15.7106 16.8593C14.7669 17.4201 13.8757 18.0649 13.0478 18.7857C12.395 19.3594 11.7832 19.9782 11.2172 20.6377C10.7649 21.1618 10.3428 21.7111 9.95272 22.2829C9.57472 22.8429 9.31432 23.2943 9.06904 23.7221C8.76888 24.2452 8.56504 24.6041 8.32816 25.1037C8.02817 25.7501 7.77354 26.4166 7.566 27.0984C7.36093 27.7145 7.19265 28.3422 7.062 28.9783C6.91886 29.7097 6.82904 30.4504 6.7932 31.1948C6.73272 32.228 6.6476 33.8419 6.97576 35.9329C7.1964 37.3402 7.3728 38.463 8.06104 39.7919C8.34776 40.3463 8.64904 40.7646 9.2516 41.6018C9.83624 42.4138 10.5676 43.4302 11.7122 44.6017C12.709 45.622 13.8043 46.5411 14.9821 47.3457C15.9924 48.0242 17.0538 48.6233 18.1567 49.1377C19.0432 49.5544 20.4057 50.1709 22.1652 50.6497C23.7371 51.0781 24.9557 51.3716 26.6021 51.3587C27.7641 51.3485 28.9188 51.1722 30.031 50.8351L30.1234 50.806L30.0158 50.792C29.7082 50.7258 29.4064 50.6346 29.1137 50.5193C28.6137 50.3398 28.1289 50.1208 27.6638 49.8641C27.2627 49.6387 26.8781 49.3849 26.513 49.1047C26.1224 48.8034 25.7528 48.4755 25.407 48.1236C25.1119 47.8245 24.8337 47.5091 24.5738 47.1789L24.511 47.0764C24.4293 47.0517 24.3464 47.0254 24.263 46.9969C23.8822 46.8686 23.6811 46.7645 23.367 46.6357C23.0209 46.4962 23.0382 46.5293 22.7459 46.4117C22.4536 46.2941 22.294 46.2045 21.5285 45.7766C20.7109 45.3197 20.7092 45.3185 20.661 45.29C20.549 45.2217 20.1061 44.954 19.5763 44.5754C18.9395 44.1161 18.3333 43.6159 17.7614 43.078C16.9225 42.3151 16.1587 41.4735 15.4805 40.5647C14.7485 39.5625 14.121 38.4321 13.6078 37.3021C13.0824 36.1504 12.6747 35.0045 12.391 33.7708C12.1894 32.8927 12.102 32.2207 12.0841 32.0773C11.9474 30.9977 11.9553 30.1812 11.9721 28.8708C11.9861 27.8269 12.0494 27.3028 12.1126 26.7809C12.2373 25.8306 12.4608 24.8959 12.7796 23.9921C13.1317 22.9699 13.6003 21.9917 14.1762 21.0767C14.7709 20.1545 15.4784 19.3102 16.2824 18.5634C16.9776 17.9295 17.6765 17.3643 18.4804 16.8756C19.2062 16.4278 19.9694 16.0435 20.7613 15.727C21.8947 15.2835 23.297 14.7347 25.1634 14.831C26.3173 14.8896 27.4467 15.1851 28.4814 15.699C29.0685 16.0041 29.6188 16.3752 30.1217 16.805C30.5501 17.169 31.175 17.7089 31.7356 18.6093C32.2671 19.4764 32.6079 20.4468 32.7352 21.4558C32.7792 21.8175 32.797 22.1819 32.7884 22.5461C32.7918 25.088 33.0074 36.8558 33.0074 36.8558Z" fill="url(#paint2_linear_373_396)"/>
<path d="M25.0236 14.8121C24.1529 14.7746 23.281 14.8528 22.4308 15.0445C20.9132 15.3884 19.8632 16.0088 18.9331 16.5565C18.0586 17.0687 17.2379 17.6678 16.4836 18.3446C14.8541 19.8241 13.6007 21.6707 12.8274 23.7312C12.2209 25.3485 12.0792 26.6572 11.9807 27.626C11.6383 31.1485 12.2871 34.6966 13.8539 37.8701C14.5045 39.1793 15.311 40.4611 16.2557 41.5768C17.1123 42.569 18.0694 43.4698 19.1117 44.2648C19.7546 44.7581 20.7447 45.5152 22.2376 46.2214C22.8994 46.5366 23.5822 46.8056 24.2811 47.0267L24.5202 47.0928C24.4955 47.0502 24.3925 46.9248 24.3449 46.8486C24.2671 46.7232 24.2099 46.638 24.1523 46.5512C24.1523 46.5512 24.1254 46.5104 23.912 46.1788C23.7603 45.9431 23.2703 45.0521 23.0591 44.5134C22.5507 43.0451 22.6223 42.018 22.6195 41.8489L22.6263 17.2649C22.622 17.1903 22.622 17.1155 22.6263 17.0409C22.633 16.9524 22.6447 16.8643 22.6615 16.7772C22.7282 16.4441 22.8568 16.1265 23.0407 15.8408C23.2352 15.5695 23.4872 15.3443 23.7787 15.1817C24.1578 14.9598 24.5849 14.833 25.0236 14.8121Z" fill="url(#paint3_linear_373_396)"/>
<path d="M77.264 18.552C79.696 18.552 81.648 19.328 83.12 20.88C84.72 22.56 85.52 24.736 85.52 27.408C85.52 30.048 84.72 32.224 83.12 33.936C81.664 35.488 79.712 36.264 77.264 36.264C74.8 36.264 72.84 35.488 71.384 33.936C69.784 32.224 68.984 30.048 68.984 27.408C68.984 24.768 69.784 22.592 71.384 20.88C72.856 19.328 74.816 18.552 77.264 18.552ZM77.264 21.576C75.728 21.576 74.52 22.176 73.64 23.376C72.888 24.416 72.512 25.76 72.512 27.408C72.512 29.296 73 30.776 73.976 31.848C74.824 32.776 75.92 33.24 77.264 33.24C78.8 33.24 80 32.64 80.864 31.44C81.616 30.4 81.992 29.056 81.992 27.408C81.992 25.52 81.504 24.04 80.528 22.968C79.68 22.04 78.592 21.576 77.264 21.576ZM87.9099 23.28H91.2219V25.704C91.6379 23.912 92.8219 23.016 94.7739 23.016C95.0779 23.016 95.2939 23.016 95.4219 23.016L95.4459 26.28C95.0459 26.2 94.6299 26.16 94.1979 26.16C93.1099 26.16 92.3579 26.36 91.9419 26.76C91.4619 27.208 91.2219 28.016 91.2219 29.184V36H87.9099V23.28ZM107.946 35.16V36H104.346C104.106 35.696 103.978 35.264 103.962 34.704C103.082 35.744 101.802 36.264 100.122 36.264C98.8899 36.264 97.8979 35.888 97.1459 35.136C96.5379 34.528 96.2339 33.688 96.2339 32.616C96.2339 31.016 96.8739 29.88 98.1539 29.208C98.6979 28.92 99.7779 28.632 101.394 28.344L103.986 27.864L103.962 26.952C103.946 26.104 103.306 25.68 102.042 25.68C101.226 25.68 100.65 25.808 100.314 26.064C99.9939 26.304 99.7939 26.752 99.7139 27.408H96.5459C96.7379 24.48 98.5459 23.016 101.97 23.016C103.858 23.016 105.218 23.352 106.05 24.024C106.802 24.664 107.178 25.632 107.178 26.928V34.032C107.178 34.608 107.434 34.984 107.946 35.16ZM103.986 29.856L101.562 30.408C100.874 30.568 100.362 30.8 100.026 31.104C99.7059 31.408 99.5459 31.784 99.5459 32.232C99.5459 33.144 100.138 33.6 101.322 33.6C103.034 33.6 103.914 32.664 103.962 30.792L103.986 29.856ZM110.176 23.28H113.488V25.08C114.384 23.704 115.648 23.016 117.28 23.016C118.736 23.016 119.84 23.448 120.592 24.312C121.232 25.08 121.552 26.12 121.552 27.432V36H118.264V28.104C118.264 26.584 117.552 25.824 116.128 25.824C115.328 25.824 114.688 26.056 114.208 26.52C113.728 26.968 113.488 27.568 113.488 28.32V36H110.176V23.28ZM132.654 23.28H135.798V35.88C135.798 37.848 135.182 39.256 133.95 40.104C132.91 40.792 131.486 41.136 129.678 41.136C127.79 41.136 126.35 40.728 125.358 39.912C124.542 39.256 124.118 38.464 124.086 37.536H127.494C127.766 38.528 128.55 39.024 129.846 39.024C130.662 39.024 131.35 38.768 131.91 38.256C132.406 37.808 132.654 37.112 132.654 36.168V34.272C132.046 35.024 131.478 35.544 130.95 35.832C130.422 36.12 129.782 36.264 129.03 36.264C127.382 36.264 126.078 35.592 125.118 34.248C124.27 33.096 123.846 31.632 123.846 29.856C123.846 27.76 124.414 26.048 125.55 24.72C126.542 23.584 127.742 23.016 129.15 23.016C130.526 23.016 131.694 23.68 132.654 25.008V23.28ZM129.822 25.776C129.022 25.776 128.374 26.144 127.878 26.88C127.398 27.616 127.158 28.576 127.158 29.76C127.158 30.896 127.398 31.808 127.878 32.496C128.374 33.184 129.022 33.528 129.822 33.528C130.654 33.528 131.342 33.176 131.886 32.472C132.398 31.816 132.654 30.904 132.654 29.736C132.654 28.472 132.358 27.472 131.766 26.736C131.254 26.096 130.606 25.776 129.822 25.776ZM149.997 30.504H141.453C141.501 31.528 141.661 32.256 141.933 32.688C142.397 33.392 143.125 33.744 144.117 33.744C145.349 33.744 146.173 33.232 146.589 32.208H149.853C149.485 33.456 148.765 34.448 147.693 35.184C146.637 35.904 145.397 36.264 143.973 36.264C142.037 36.264 140.549 35.616 139.509 34.32C138.597 33.184 138.141 31.688 138.141 29.832C138.141 27.576 138.733 25.832 139.917 24.6C140.957 23.544 142.325 23.016 144.021 23.016C145.317 23.016 146.453 23.336 147.429 23.976C148.405 24.616 149.101 25.512 149.517 26.664C149.853 27.56 150.021 28.64 150.021 29.904C150.021 30.064 150.013 30.264 149.997 30.504ZM146.565 28.32C146.405 26.464 145.549 25.536 143.997 25.536C142.541 25.536 141.709 26.464 141.501 28.32H146.565ZM160.586 18.816V33.048H168.818V36H157.058V18.816H160.586ZM181.708 30.504H173.164C173.212 31.528 173.372 32.256 173.644 32.688C174.108 33.392 174.836 33.744 175.828 33.744C177.06 33.744 177.884 33.232 178.3 32.208H181.564C181.196 33.456 180.476 34.448 179.404 35.184C178.348 35.904 177.108 36.264 175.684 36.264C173.748 36.264 172.26 35.616 171.22 34.32C170.308 33.184 169.852 31.688 169.852 29.832C169.852 27.576 170.444 25.832 171.628 24.6C172.668 23.544 174.036 23.016 175.732 23.016C177.028 23.016 178.164 23.336 179.14 23.976C180.116 24.616 180.812 25.512 181.228 26.664C181.564 27.56 181.732 28.64 181.732 29.904C181.732 30.064 181.724 30.264 181.708 30.504ZM178.276 28.32C178.116 26.464 177.26 25.536 175.708 25.536C174.252 25.536 173.42 26.464 173.212 28.32H178.276ZM194.923 35.16V36H191.323C191.083 35.696 190.955 35.264 190.939 34.704C190.059 35.744 188.779 36.264 187.099 36.264C185.867 36.264 184.875 35.888 184.123 35.136C183.515 34.528 183.211 33.688 183.211 32.616C183.211 31.016 183.851 29.88 185.131 29.208C185.675 28.92 186.755 28.632 188.371 28.344L190.963 27.864L190.939 26.952C190.923 26.104 190.283 25.68 189.019 25.68C188.203 25.68 187.627 25.808 187.291 26.064C186.971 26.304 186.771 26.752 186.691 27.408H183.523C183.715 24.48 185.523 23.016 188.947 23.016C190.835 23.016 192.195 23.352 193.027 24.024C193.779 24.664 194.155 25.632 194.155 26.928V34.032C194.155 34.608 194.411 34.984 194.923 35.16ZM190.963 29.856L188.539 30.408C187.851 30.568 187.339 30.8 187.003 31.104C186.683 31.408 186.523 31.784 186.523 32.232C186.523 33.144 187.115 33.6 188.299 33.6C190.011 33.6 190.891 32.664 190.939 30.792L190.963 29.856ZM205.216 23.28H208.36V35.88C208.36 37.848 207.744 39.256 206.512 40.104C205.472 40.792 204.048 41.136 202.24 41.136C200.352 41.136 198.912 40.728 197.92 39.912C197.104 39.256 196.68 38.464 196.648 37.536H200.056C200.328 38.528 201.112 39.024 202.408 39.024C203.224 39.024 203.912 38.768 204.472 38.256C204.968 37.808 205.216 37.112 205.216 36.168V34.272C204.608 35.024 204.04 35.544 203.512 35.832C202.984 36.12 202.344 36.264 201.592 36.264C199.944 36.264 198.64 35.592 197.68 34.248C196.832 33.096 196.408 31.632 196.408 29.856C196.408 27.76 196.976 26.048 198.112 24.72C199.104 23.584 200.304 23.016 201.712 23.016C203.088 23.016 204.256 23.68 205.216 25.008V23.28ZM202.384 25.776C201.584 25.776 200.936 26.144 200.44 26.88C199.96 27.616 199.72 28.576 199.72 29.76C199.72 30.896 199.96 31.808 200.44 32.496C200.936 33.184 201.584 33.528 202.384 33.528C203.216 33.528 203.904 33.176 204.448 32.472C204.96 31.816 205.216 30.904 205.216 29.736C205.216 28.472 204.92 27.472 204.328 26.736C203.816 26.096 203.168 25.776 202.384 25.776ZM222.752 36H219.464V34.2C218.568 35.576 217.296 36.264 215.648 36.264C214.192 36.264 213.088 35.832 212.336 34.968C211.696 34.216 211.376 33.184 211.376 31.872V23.28H214.688V31.176C214.688 32.696 215.392 33.456 216.8 33.456C217.6 33.456 218.24 33.232 218.72 32.784C219.216 32.336 219.464 31.728 219.464 30.96V23.28H222.752V36ZM236.95 30.504H228.406C228.454 31.528 228.614 32.256 228.886 32.688C229.35 33.392 230.078 33.744 231.07 33.744C232.302 33.744 233.126 33.232 233.542 32.208H236.806C236.438 33.456 235.718 34.448 234.646 35.184C233.59 35.904 232.35 36.264 230.926 36.264C228.99 36.264 227.502 35.616 226.462 34.32C225.55 33.184 225.094 31.688 225.094 29.832C225.094 27.576 225.686 25.832 226.87 24.6C227.91 23.544 229.278 23.016 230.974 23.016C232.27 23.016 233.406 23.336 234.382 23.976C235.358 24.616 236.054 25.512 236.47 26.664C236.806 27.56 236.974 28.64 236.974 29.904C236.974 30.064 236.966 30.264 236.95 30.504ZM233.518 28.32C233.358 26.464 232.502 25.536 230.95 25.536C229.494 25.536 228.662 26.464 228.454 28.32H233.518Z" fill="#F15D27"/>
<defs>
<linearGradient id="paint0_linear_373_396" x1="59.1359" y1="28.532" x2="22.5906" y2="28.3439" gradientUnits="userSpaceOnUse">
<stop offset="0.209057" stop-color="#F05F1C"/>
<stop offset="0.387553" stop-color="#F0671A"/>
<stop offset="0.964679" stop-color="#ED8612"/>
</linearGradient>
<linearGradient id="paint1_linear_373_396" x1="32.8441" y1="29.5679" x2="11.7533" y2="26.1269" gradientUnits="userSpaceOnUse">
<stop offset="0.235" stop-color="#F1561E"/>
<stop offset="1" stop-color="#E48112"/>
</linearGradient>
<linearGradient id="paint2_linear_373_396" x1="6.71984" y1="31.668" x2="35.9238" y2="31.052" gradientUnits="userSpaceOnUse">
<stop stop-color="#FFD40D"/>
<stop offset="0.253209" stop-color="#F39F10"/>
<stop offset="0.819904" stop-color="#DF4C16"/>
<stop offset="0.838239" stop-color="#DF4C16"/>
</linearGradient>
<linearGradient id="paint3_linear_373_396" x1="12.348" y1="27.8041" x2="30.5592" y2="29.1398" gradientUnits="userSpaceOnUse">
<stop offset="0.189999" stop-color="#FABD0F"/>
<stop offset="1" stop-color="#DF4C16"/>
</linearGradient>
</defs>
</svg>
