<svg width="831" height="152" viewBox="0 0 831 152" fill="none" xmlns="http://www.w3.org/2000/svg">
<g opacity="0.3">
<mask id="path-1-outside-1_359_1781" maskUnits="userSpaceOnUse" x="0" y="0" width="1686" height="152" fill="black">
<rect fill="white" width="1686" height="152"/>
<path d="M1 116.484V1H52.4516C64.172 1 73.2581 3.84946 79.7097 9.54838C86.6989 15.5699 90.1936 22.8817 90.1936 31.4839C90.1936 36.4301 88.957 40.7312 86.4839 44.3871C84.1183 47.9355 80.086 51.5376 74.3871 55.1935C87.0753 62.7204 93.4193 72.0753 93.4193 83.2581C93.4193 93.3656 89.6021 101.645 81.9677 108.097C75.3011 113.688 65.6237 116.484 52.9355 116.484H1ZM24.7097 20.8387V46.9677H50.6774C61.7527 46.9677 67.2903 42.6129 67.2903 33.9032C67.2903 25.1935 61.7527 20.8387 50.6774 20.8387H24.7097ZM24.7097 66.8064V96.6452H53.0968C64.8172 96.6452 70.6774 91.6989 70.6774 81.8064C70.6774 71.8064 64.8172 66.8064 53.0968 66.8064H24.7097Z"/>
<path d="M184.43 110.839V116.484H160.236C158.623 114.441 157.763 111.538 157.656 107.774C151.742 114.763 143.14 118.258 131.849 118.258C123.57 118.258 116.903 115.731 111.849 110.677C107.763 106.591 105.72 100.946 105.72 93.7419C105.72 82.9892 110.021 75.3548 118.623 70.8387C122.279 68.9032 129.537 66.9677 140.398 65.0322L157.817 61.8064L157.656 55.6774C157.548 49.9785 153.247 47.129 144.753 47.129C139.269 47.129 135.398 47.9892 133.14 49.7097C130.989 51.3226 129.645 54.3333 129.107 58.7419H107.817C109.107 39.0645 121.258 29.2258 144.269 29.2258C156.957 29.2258 166.097 31.4839 171.688 36C176.742 40.3011 179.269 46.8064 179.269 55.5161V103.258C179.269 107.129 180.989 109.656 184.43 110.839ZM157.817 75.1935L141.527 78.9032C136.903 79.9785 133.462 81.5376 131.204 83.5806C129.054 85.6236 127.978 88.1505 127.978 91.1613C127.978 97.2903 131.957 100.355 139.914 100.355C151.419 100.355 157.333 94.0645 157.656 81.4839L157.817 75.1935Z"/>
<path d="M271.672 62.2903H250.543C249.252 56.6989 247.371 52.7742 244.897 50.5161C242.532 48.2581 239.145 47.129 234.736 47.129C228.069 47.129 223.446 49.4946 220.865 54.2258C218.069 59.7097 216.672 66.4301 216.672 74.3871C216.672 82.4516 218.231 88.8495 221.349 93.5806C224.575 98.2043 228.983 100.516 234.575 100.516C238.983 100.516 242.371 99.3871 244.736 97.129C247.209 94.7634 249.145 90.8925 250.543 85.5161H271.672C270.596 96.2688 266.295 104.602 258.768 110.516C252.209 115.785 244.091 118.419 234.414 118.419C220.865 118.419 210.596 114.065 203.607 105.355C197.478 97.8279 194.414 87.6667 194.414 74.871C194.414 59.3871 198.446 47.6667 206.51 39.7097C213.5 32.7204 222.962 29.2258 234.897 29.2258C246.295 29.2258 255.328 32.5054 261.994 39.0645C267.693 44.871 270.919 52.6129 271.672 62.2903Z"/>
<path d="M309.405 64.2258L337.308 31H362.631L333.437 63.2581L364.566 116.484H338.598L318.114 78.7419L309.405 88.4193V116.484H287.147V1H309.405V64.2258Z"/>
<path d="M450.18 79.5484H392.76C393.083 86.4301 394.158 91.3226 395.986 94.2258C399.104 98.957 403.997 101.323 410.664 101.323C418.943 101.323 424.481 97.8817 427.276 91H449.212C446.739 99.3871 441.9 106.054 434.696 111C427.599 115.839 419.266 118.258 409.696 118.258C396.685 118.258 386.685 113.903 379.696 105.194C373.567 97.5591 370.502 87.5054 370.502 75.0323C370.502 59.871 374.481 48.1505 382.438 39.871C389.427 32.7742 398.621 29.2258 410.018 29.2258C418.728 29.2258 426.362 31.3763 432.922 35.6774C439.481 39.9785 444.158 46 446.954 53.7419C449.212 59.7634 450.341 67.0215 450.341 75.5161C450.341 76.5914 450.287 77.9355 450.18 79.5484ZM427.115 64.871C426.04 52.3978 420.287 46.1613 409.857 46.1613C400.072 46.1613 394.481 52.3978 393.083 64.871H427.115Z"/>
<path d="M465.921 31H488.179V43.0968C494.2 33.8495 502.695 29.2258 513.663 29.2258C523.448 29.2258 530.867 32.129 535.921 37.9355C540.222 43.0968 542.372 50.086 542.372 58.9032V116.484H520.275V63.4193C520.275 53.2043 515.49 48.0968 505.921 48.0968C500.544 48.0968 496.243 49.6559 493.017 52.7742C489.792 55.7849 488.179 59.8172 488.179 64.871V116.484H465.921V31Z"/>
<path d="M639.241 1V116.484H616.983V106.968C611.822 114.495 604.026 118.258 593.596 118.258C582.305 118.258 573.219 113.527 566.338 104.065C560.424 96 557.467 85.9462 557.467 73.9032C557.467 59.6021 561.23 48.3118 568.757 40.0323C575.316 32.828 583.542 29.2258 593.434 29.2258C603.865 29.2258 611.714 33.2043 616.983 41.1613V1H639.241ZM598.434 47.4516C592.843 47.4516 588.327 49.871 584.886 54.7097C581.445 59.5484 579.725 65.8925 579.725 73.7419C579.725 81.4839 581.391 87.7742 584.725 92.6129C588.166 97.3441 592.736 99.7097 598.434 99.7097C604.133 99.7097 608.65 97.3441 611.983 92.6129C615.424 87.8817 617.144 81.5914 617.144 73.7419C617.144 65.7849 615.424 59.4409 611.983 54.7097C608.542 49.871 604.026 47.4516 598.434 47.4516Z"/>
<path d="M691.839 116.484V1H737C753.882 1 766.033 5.46237 773.452 14.3871C782.807 25.5699 787.484 40.3548 787.484 58.7419C787.484 77.2365 782.807 92.0215 773.452 103.097C765.925 112.021 753.775 116.484 737 116.484H691.839ZM715.549 96.6452H737C754.85 96.6452 763.775 84.0107 763.775 58.7419C763.775 33.4731 754.85 20.8387 737 20.8387H715.549V96.6452Z"/>
<path d="M878.45 79.5484H821.03C821.353 86.4301 822.428 91.3226 824.256 94.2258C827.374 98.957 832.267 101.323 838.933 101.323C847.213 101.323 852.751 97.8817 855.546 91H877.482C875.009 99.3871 870.17 106.054 862.966 111C855.869 115.839 847.536 118.258 837.966 118.258C824.955 118.258 814.955 113.903 807.966 105.194C801.837 97.5591 798.772 87.5054 798.772 75.0323C798.772 59.871 802.751 48.1505 810.708 39.871C817.697 32.7742 826.89 29.2258 838.288 29.2258C846.998 29.2258 854.632 31.3763 861.191 35.6774C867.751 39.9785 872.428 46 875.224 53.7419C877.482 59.7634 878.611 67.0215 878.611 75.5161C878.611 76.5914 878.557 77.9355 878.45 79.5484ZM855.385 64.871C854.31 52.3978 848.557 46.1613 838.127 46.1613C828.342 46.1613 822.751 52.3978 821.353 64.871H855.385Z"/>
<path d="M939.352 116.484H915.965L886.126 31H909.674L928.061 93.5806L945.481 31H968.707L939.352 116.484Z"/>
<path d="M1056.12 79.5484H998.702C999.024 86.4301 1000.1 91.3226 1001.93 94.2258C1005.05 98.957 1009.94 101.323 1016.6 101.323C1024.88 101.323 1030.42 97.8817 1033.22 91H1055.15C1052.68 99.3871 1047.84 106.054 1040.64 111C1033.54 115.839 1025.21 118.258 1015.64 118.258C1002.63 118.258 992.626 113.903 985.637 105.194C979.508 97.5591 976.443 87.5054 976.443 75.0323C976.443 59.871 980.422 48.1505 988.379 39.871C995.368 32.7742 1004.56 29.2258 1015.96 29.2258C1024.67 29.2258 1032.3 31.3763 1038.86 35.6774C1045.42 39.9785 1050.1 46 1052.9 53.7419C1055.15 59.7634 1056.28 67.0215 1056.28 75.5161C1056.28 76.5914 1056.23 77.9355 1056.12 79.5484ZM1033.06 64.871C1031.98 52.3978 1026.23 46.1613 1015.8 46.1613C1006.01 46.1613 1000.42 52.3978 999.024 64.871H1033.06Z"/>
<path d="M1094.44 1V116.484H1072.18V1H1094.44Z"/>
<path d="M1153.71 29.2258C1167.79 29.2258 1178.6 33.7419 1186.13 42.7742C1192.69 50.5161 1195.96 60.8387 1195.96 73.7419C1195.96 88.5806 1191.72 99.9785 1183.22 107.935C1175.8 114.817 1165.96 118.258 1153.71 118.258C1139.62 118.258 1128.81 113.796 1121.29 104.871C1114.73 97.0215 1111.45 86.6452 1111.45 73.7419C1111.45 59.0107 1115.7 47.6667 1124.19 39.7097C1131.61 32.7204 1141.45 29.2258 1153.71 29.2258ZM1153.71 47.129C1147.69 47.129 1142.85 49.6021 1139.19 54.5484C1135.53 59.3871 1133.71 65.7849 1133.71 73.7419C1133.71 82.3441 1135.75 89.1183 1139.84 94.0645C1143.49 98.2581 1148.12 100.355 1153.71 100.355C1159.73 100.355 1164.57 97.9355 1168.22 93.0968C1171.99 88.1505 1173.87 81.6989 1173.87 73.7419C1173.87 65.2473 1171.77 58.5269 1167.58 53.5806C1163.92 49.2796 1159.3 47.129 1153.71 47.129Z"/>
<path d="M1234.46 31V43.2581C1239.62 33.9032 1247.52 29.2258 1258.17 29.2258C1263.22 29.2258 1268.17 30.4624 1273.01 32.9355C1277.95 35.4086 1281.88 38.6344 1284.78 42.6129C1290.91 51.1075 1293.97 61.6989 1293.97 74.3871C1293.97 88.043 1290.16 99.0645 1282.52 107.452C1275.96 114.656 1267.84 118.258 1258.17 118.258C1247.63 118.258 1239.73 114.226 1234.46 106.161V151H1212.2V31H1234.46ZM1253.01 47.7742C1247.41 47.7742 1242.9 50.1935 1239.46 55.0323C1236.02 59.7634 1234.3 66.0538 1234.3 73.9032C1234.3 81.6452 1236.02 87.8817 1239.46 92.6129C1242.9 97.3441 1247.41 99.7097 1253.01 99.7097C1258.6 99.7097 1263.11 97.3441 1266.55 92.6129C1270 87.8817 1271.72 81.6452 1271.72 73.9032C1271.72 66.0538 1270 59.7634 1266.55 55.0323C1263.11 50.1935 1258.6 47.7742 1253.01 47.7742Z"/>
<path d="M1309.7 31H1331.8V41.3226C1338.36 33.2581 1346.15 29.2258 1355.19 29.2258C1366.26 29.2258 1374 33.4194 1378.41 41.8064C1384.86 33.4194 1393.2 29.2258 1403.41 29.2258C1412.01 29.2258 1418.68 31.5914 1423.41 36.3226C1428.25 40.9462 1430.67 47.3978 1430.67 55.6774V116.484H1408.57V59.2258C1408.57 51.8064 1404.54 48.0968 1396.48 48.0968C1391.75 48.0968 1388.04 49.6021 1385.35 52.6129C1382.66 55.5161 1381.31 59.6021 1381.31 64.871V116.484H1359.06V59.2258C1359.06 51.8064 1355.08 48.0968 1347.12 48.0968C1342.39 48.0968 1338.68 49.6021 1335.99 52.6129C1333.3 55.5161 1331.96 59.6021 1331.96 64.871V116.484H1309.7V31Z"/>
<path d="M1525.5 79.5484H1468.08C1468.4 86.4301 1469.48 91.3226 1471.31 94.2258C1474.43 98.957 1479.32 101.323 1485.98 101.323C1494.26 101.323 1499.8 97.8817 1502.6 91H1524.53C1522.06 99.3871 1517.22 106.054 1510.02 111C1502.92 115.839 1494.59 118.258 1485.02 118.258C1472.01 118.258 1462.01 113.903 1455.02 105.194C1448.89 97.5591 1445.82 87.5054 1445.82 75.0323C1445.82 59.871 1449.8 48.1505 1457.76 39.871C1464.75 32.7742 1473.94 29.2258 1485.34 29.2258C1494.05 29.2258 1501.68 31.3763 1508.24 35.6774C1514.8 39.9785 1519.48 46 1522.28 53.7419C1524.53 59.7634 1525.66 67.0215 1525.66 75.5161C1525.66 76.5914 1525.61 77.9355 1525.5 79.5484ZM1502.44 64.871C1501.36 52.3978 1495.61 46.1613 1485.18 46.1613C1475.39 46.1613 1469.8 52.3978 1468.4 64.871H1502.44Z"/>
<path d="M1541.24 31H1563.5V43.0968C1569.52 33.8495 1578.02 29.2258 1588.98 29.2258C1598.77 29.2258 1606.19 32.129 1611.24 37.9355C1615.54 43.0968 1617.69 50.086 1617.69 58.9032V116.484H1595.6V63.4193C1595.6 53.2043 1590.81 48.0968 1581.24 48.0968C1575.87 48.0968 1571.56 49.6559 1568.34 52.7742C1565.11 55.7849 1563.5 59.8172 1563.5 64.871V116.484H1541.24V31Z"/>
<path d="M1678.59 31V45.6774H1663.59V93.2581C1663.59 96.3763 1664.13 98.5269 1665.21 99.7097C1666.39 100.892 1668.49 101.484 1671.5 101.484C1673.97 101.484 1677.14 100.516 1681.01 98.5806C1681.34 98.3656 1681.61 98.2043 1681.82 98.0968L1684.4 113.258C1677.63 116.591 1670.53 118.258 1663.11 118.258C1648.59 118.258 1641.34 111.591 1641.34 98.2581V45.6774H1630.37V31H1641.34V16.8064L1663.59 4.06451V31H1678.59Z"/>
</mask>
<path d="M1 116.484V1H52.4516C64.172 1 73.2581 3.84946 79.7097 9.54838C86.6989 15.5699 90.1936 22.8817 90.1936 31.4839C90.1936 36.4301 88.957 40.7312 86.4839 44.3871C84.1183 47.9355 80.086 51.5376 74.3871 55.1935C87.0753 62.7204 93.4193 72.0753 93.4193 83.2581C93.4193 93.3656 89.6021 101.645 81.9677 108.097C75.3011 113.688 65.6237 116.484 52.9355 116.484H1ZM24.7097 20.8387V46.9677H50.6774C61.7527 46.9677 67.2903 42.6129 67.2903 33.9032C67.2903 25.1935 61.7527 20.8387 50.6774 20.8387H24.7097ZM24.7097 66.8064V96.6452H53.0968C64.8172 96.6452 70.6774 91.6989 70.6774 81.8064C70.6774 71.8064 64.8172 66.8064 53.0968 66.8064H24.7097Z" stroke="#6B79EF" stroke-width="2" mask="url(#path-1-outside-1_359_1781)"/>
<path d="M184.43 110.839V116.484H160.236C158.623 114.441 157.763 111.538 157.656 107.774C151.742 114.763 143.14 118.258 131.849 118.258C123.57 118.258 116.903 115.731 111.849 110.677C107.763 106.591 105.72 100.946 105.72 93.7419C105.72 82.9892 110.021 75.3548 118.623 70.8387C122.279 68.9032 129.537 66.9677 140.398 65.0322L157.817 61.8064L157.656 55.6774C157.548 49.9785 153.247 47.129 144.753 47.129C139.269 47.129 135.398 47.9892 133.14 49.7097C130.989 51.3226 129.645 54.3333 129.107 58.7419H107.817C109.107 39.0645 121.258 29.2258 144.269 29.2258C156.957 29.2258 166.097 31.4839 171.688 36C176.742 40.3011 179.269 46.8064 179.269 55.5161V103.258C179.269 107.129 180.989 109.656 184.43 110.839ZM157.817 75.1935L141.527 78.9032C136.903 79.9785 133.462 81.5376 131.204 83.5806C129.054 85.6236 127.978 88.1505 127.978 91.1613C127.978 97.2903 131.957 100.355 139.914 100.355C151.419 100.355 157.333 94.0645 157.656 81.4839L157.817 75.1935Z" stroke="#6B79EF" stroke-width="2" mask="url(#path-1-outside-1_359_1781)"/>
<path d="M271.672 62.2903H250.543C249.252 56.6989 247.371 52.7742 244.897 50.5161C242.532 48.2581 239.145 47.129 234.736 47.129C228.069 47.129 223.446 49.4946 220.865 54.2258C218.069 59.7097 216.672 66.4301 216.672 74.3871C216.672 82.4516 218.231 88.8495 221.349 93.5806C224.575 98.2043 228.983 100.516 234.575 100.516C238.983 100.516 242.371 99.3871 244.736 97.129C247.209 94.7634 249.145 90.8925 250.543 85.5161H271.672C270.596 96.2688 266.295 104.602 258.768 110.516C252.209 115.785 244.091 118.419 234.414 118.419C220.865 118.419 210.596 114.065 203.607 105.355C197.478 97.8279 194.414 87.6667 194.414 74.871C194.414 59.3871 198.446 47.6667 206.51 39.7097C213.5 32.7204 222.962 29.2258 234.897 29.2258C246.295 29.2258 255.328 32.5054 261.994 39.0645C267.693 44.871 270.919 52.6129 271.672 62.2903Z" stroke="#6B79EF" stroke-width="2" mask="url(#path-1-outside-1_359_1781)"/>
<path d="M309.405 64.2258L337.308 31H362.631L333.437 63.2581L364.566 116.484H338.598L318.114 78.7419L309.405 88.4193V116.484H287.147V1H309.405V64.2258Z" stroke="#6B79EF" stroke-width="2" mask="url(#path-1-outside-1_359_1781)"/>
<path d="M450.18 79.5484H392.76C393.083 86.4301 394.158 91.3226 395.986 94.2258C399.104 98.957 403.997 101.323 410.664 101.323C418.943 101.323 424.481 97.8817 427.276 91H449.212C446.739 99.3871 441.9 106.054 434.696 111C427.599 115.839 419.266 118.258 409.696 118.258C396.685 118.258 386.685 113.903 379.696 105.194C373.567 97.5591 370.502 87.5054 370.502 75.0323C370.502 59.871 374.481 48.1505 382.438 39.871C389.427 32.7742 398.621 29.2258 410.018 29.2258C418.728 29.2258 426.362 31.3763 432.922 35.6774C439.481 39.9785 444.158 46 446.954 53.7419C449.212 59.7634 450.341 67.0215 450.341 75.5161C450.341 76.5914 450.287 77.9355 450.18 79.5484ZM427.115 64.871C426.04 52.3978 420.287 46.1613 409.857 46.1613C400.072 46.1613 394.481 52.3978 393.083 64.871H427.115Z" stroke="#6B79EF" stroke-width="2" mask="url(#path-1-outside-1_359_1781)"/>
<path d="M465.921 31H488.179V43.0968C494.2 33.8495 502.695 29.2258 513.663 29.2258C523.448 29.2258 530.867 32.129 535.921 37.9355C540.222 43.0968 542.372 50.086 542.372 58.9032V116.484H520.275V63.4193C520.275 53.2043 515.49 48.0968 505.921 48.0968C500.544 48.0968 496.243 49.6559 493.017 52.7742C489.792 55.7849 488.179 59.8172 488.179 64.871V116.484H465.921V31Z" stroke="#6B79EF" stroke-width="2" mask="url(#path-1-outside-1_359_1781)"/>
<path d="M639.241 1V116.484H616.983V106.968C611.822 114.495 604.026 118.258 593.596 118.258C582.305 118.258 573.219 113.527 566.338 104.065C560.424 96 557.467 85.9462 557.467 73.9032C557.467 59.6021 561.23 48.3118 568.757 40.0323C575.316 32.828 583.542 29.2258 593.434 29.2258C603.865 29.2258 611.714 33.2043 616.983 41.1613V1H639.241ZM598.434 47.4516C592.843 47.4516 588.327 49.871 584.886 54.7097C581.445 59.5484 579.725 65.8925 579.725 73.7419C579.725 81.4839 581.391 87.7742 584.725 92.6129C588.166 97.3441 592.736 99.7097 598.434 99.7097C604.133 99.7097 608.65 97.3441 611.983 92.6129C615.424 87.8817 617.144 81.5914 617.144 73.7419C617.144 65.7849 615.424 59.4409 611.983 54.7097C608.542 49.871 604.026 47.4516 598.434 47.4516Z" stroke="#6B79EF" stroke-width="2" mask="url(#path-1-outside-1_359_1781)"/>
<path d="M691.839 116.484V1H737C753.882 1 766.033 5.46237 773.452 14.3871C782.807 25.5699 787.484 40.3548 787.484 58.7419C787.484 77.2365 782.807 92.0215 773.452 103.097C765.925 112.021 753.775 116.484 737 116.484H691.839ZM715.549 96.6452H737C754.85 96.6452 763.775 84.0107 763.775 58.7419C763.775 33.4731 754.85 20.8387 737 20.8387H715.549V96.6452Z" stroke="#6B79EF" stroke-width="2" mask="url(#path-1-outside-1_359_1781)"/>
<path d="M878.45 79.5484H821.03C821.353 86.4301 822.428 91.3226 824.256 94.2258C827.374 98.957 832.267 101.323 838.933 101.323C847.213 101.323 852.751 97.8817 855.546 91H877.482C875.009 99.3871 870.17 106.054 862.966 111C855.869 115.839 847.536 118.258 837.966 118.258C824.955 118.258 814.955 113.903 807.966 105.194C801.837 97.5591 798.772 87.5054 798.772 75.0323C798.772 59.871 802.751 48.1505 810.708 39.871C817.697 32.7742 826.89 29.2258 838.288 29.2258C846.998 29.2258 854.632 31.3763 861.191 35.6774C867.751 39.9785 872.428 46 875.224 53.7419C877.482 59.7634 878.611 67.0215 878.611 75.5161C878.611 76.5914 878.557 77.9355 878.45 79.5484ZM855.385 64.871C854.31 52.3978 848.557 46.1613 838.127 46.1613C828.342 46.1613 822.751 52.3978 821.353 64.871H855.385Z" stroke="#6B79EF" stroke-width="2" mask="url(#path-1-outside-1_359_1781)"/>
<path d="M939.352 116.484H915.965L886.126 31H909.674L928.061 93.5806L945.481 31H968.707L939.352 116.484Z" stroke="#6B79EF" stroke-width="2" mask="url(#path-1-outside-1_359_1781)"/>
<path d="M1056.12 79.5484H998.702C999.024 86.4301 1000.1 91.3226 1001.93 94.2258C1005.05 98.957 1009.94 101.323 1016.6 101.323C1024.88 101.323 1030.42 97.8817 1033.22 91H1055.15C1052.68 99.3871 1047.84 106.054 1040.64 111C1033.54 115.839 1025.21 118.258 1015.64 118.258C1002.63 118.258 992.626 113.903 985.637 105.194C979.508 97.5591 976.443 87.5054 976.443 75.0323C976.443 59.871 980.422 48.1505 988.379 39.871C995.368 32.7742 1004.56 29.2258 1015.96 29.2258C1024.67 29.2258 1032.3 31.3763 1038.86 35.6774C1045.42 39.9785 1050.1 46 1052.9 53.7419C1055.15 59.7634 1056.28 67.0215 1056.28 75.5161C1056.28 76.5914 1056.23 77.9355 1056.12 79.5484ZM1033.06 64.871C1031.98 52.3978 1026.23 46.1613 1015.8 46.1613C1006.01 46.1613 1000.42 52.3978 999.024 64.871H1033.06Z" stroke="#6B79EF" stroke-width="2" mask="url(#path-1-outside-1_359_1781)"/>
<path d="M1094.44 1V116.484H1072.18V1H1094.44Z" stroke="#6B79EF" stroke-width="2" mask="url(#path-1-outside-1_359_1781)"/>
<path d="M1153.71 29.2258C1167.79 29.2258 1178.6 33.7419 1186.13 42.7742C1192.69 50.5161 1195.96 60.8387 1195.96 73.7419C1195.96 88.5806 1191.72 99.9785 1183.22 107.935C1175.8 114.817 1165.96 118.258 1153.71 118.258C1139.62 118.258 1128.81 113.796 1121.29 104.871C1114.73 97.0215 1111.45 86.6452 1111.45 73.7419C1111.45 59.0107 1115.7 47.6667 1124.19 39.7097C1131.61 32.7204 1141.45 29.2258 1153.71 29.2258ZM1153.71 47.129C1147.69 47.129 1142.85 49.6021 1139.19 54.5484C1135.53 59.3871 1133.71 65.7849 1133.71 73.7419C1133.71 82.3441 1135.75 89.1183 1139.84 94.0645C1143.49 98.2581 1148.12 100.355 1153.71 100.355C1159.73 100.355 1164.57 97.9355 1168.22 93.0968C1171.99 88.1505 1173.87 81.6989 1173.87 73.7419C1173.87 65.2473 1171.77 58.5269 1167.58 53.5806C1163.92 49.2796 1159.3 47.129 1153.71 47.129Z" stroke="#6B79EF" stroke-width="2" mask="url(#path-1-outside-1_359_1781)"/>
<path d="M1234.46 31V43.2581C1239.62 33.9032 1247.52 29.2258 1258.17 29.2258C1263.22 29.2258 1268.17 30.4624 1273.01 32.9355C1277.95 35.4086 1281.88 38.6344 1284.78 42.6129C1290.91 51.1075 1293.97 61.6989 1293.97 74.3871C1293.97 88.043 1290.16 99.0645 1282.52 107.452C1275.96 114.656 1267.84 118.258 1258.17 118.258C1247.63 118.258 1239.73 114.226 1234.46 106.161V151H1212.2V31H1234.46ZM1253.01 47.7742C1247.41 47.7742 1242.9 50.1935 1239.46 55.0323C1236.02 59.7634 1234.3 66.0538 1234.3 73.9032C1234.3 81.6452 1236.02 87.8817 1239.46 92.6129C1242.9 97.3441 1247.41 99.7097 1253.01 99.7097C1258.6 99.7097 1263.11 97.3441 1266.55 92.6129C1270 87.8817 1271.72 81.6452 1271.72 73.9032C1271.72 66.0538 1270 59.7634 1266.55 55.0323C1263.11 50.1935 1258.6 47.7742 1253.01 47.7742Z" stroke="#6B79EF" stroke-width="2" mask="url(#path-1-outside-1_359_1781)"/>
<path d="M1309.7 31H1331.8V41.3226C1338.36 33.2581 1346.15 29.2258 1355.19 29.2258C1366.26 29.2258 1374 33.4194 1378.41 41.8064C1384.86 33.4194 1393.2 29.2258 1403.41 29.2258C1412.01 29.2258 1418.68 31.5914 1423.41 36.3226C1428.25 40.9462 1430.67 47.3978 1430.67 55.6774V116.484H1408.57V59.2258C1408.57 51.8064 1404.54 48.0968 1396.48 48.0968C1391.75 48.0968 1388.04 49.6021 1385.35 52.6129C1382.66 55.5161 1381.31 59.6021 1381.31 64.871V116.484H1359.06V59.2258C1359.06 51.8064 1355.08 48.0968 1347.12 48.0968C1342.39 48.0968 1338.68 49.6021 1335.99 52.6129C1333.3 55.5161 1331.96 59.6021 1331.96 64.871V116.484H1309.7V31Z" stroke="#6B79EF" stroke-width="2" mask="url(#path-1-outside-1_359_1781)"/>
<path d="M1525.5 79.5484H1468.08C1468.4 86.4301 1469.48 91.3226 1471.31 94.2258C1474.43 98.957 1479.32 101.323 1485.98 101.323C1494.26 101.323 1499.8 97.8817 1502.6 91H1524.53C1522.06 99.3871 1517.22 106.054 1510.02 111C1502.92 115.839 1494.59 118.258 1485.02 118.258C1472.01 118.258 1462.01 113.903 1455.02 105.194C1448.89 97.5591 1445.82 87.5054 1445.82 75.0323C1445.82 59.871 1449.8 48.1505 1457.76 39.871C1464.75 32.7742 1473.94 29.2258 1485.34 29.2258C1494.05 29.2258 1501.68 31.3763 1508.24 35.6774C1514.8 39.9785 1519.48 46 1522.28 53.7419C1524.53 59.7634 1525.66 67.0215 1525.66 75.5161C1525.66 76.5914 1525.61 77.9355 1525.5 79.5484ZM1502.44 64.871C1501.36 52.3978 1495.61 46.1613 1485.18 46.1613C1475.39 46.1613 1469.8 52.3978 1468.4 64.871H1502.44Z" stroke="#6B79EF" stroke-width="2" mask="url(#path-1-outside-1_359_1781)"/>
<path d="M1541.24 31H1563.5V43.0968C1569.52 33.8495 1578.02 29.2258 1588.98 29.2258C1598.77 29.2258 1606.19 32.129 1611.24 37.9355C1615.54 43.0968 1617.69 50.086 1617.69 58.9032V116.484H1595.6V63.4193C1595.6 53.2043 1590.81 48.0968 1581.24 48.0968C1575.87 48.0968 1571.56 49.6559 1568.34 52.7742C1565.11 55.7849 1563.5 59.8172 1563.5 64.871V116.484H1541.24V31Z" stroke="#6B79EF" stroke-width="2" mask="url(#path-1-outside-1_359_1781)"/>
<path d="M1678.59 31V45.6774H1663.59V93.2581C1663.59 96.3763 1664.13 98.5269 1665.21 99.7097C1666.39 100.892 1668.49 101.484 1671.5 101.484C1673.97 101.484 1677.14 100.516 1681.01 98.5806C1681.34 98.3656 1681.61 98.2043 1681.82 98.0968L1684.4 113.258C1677.63 116.591 1670.53 118.258 1663.11 118.258C1648.59 118.258 1641.34 111.591 1641.34 98.2581V45.6774H1630.37V31H1641.34V16.8064L1663.59 4.06451V31H1678.59Z" stroke="#6B79EF" stroke-width="2" mask="url(#path-1-outside-1_359_1781)"/>
</g>
</svg>
