<svg width="750" height="152" viewBox="0 0 750 152" fill="none" xmlns="http://www.w3.org/2000/svg">
<g opacity="0.2">
<mask id="path-1-outside-1_492_1726" maskUnits="userSpaceOnUse" x="0" y="0" width="1776" height="152" fill="black">
<rect fill="white" width="1776" height="152"/>
<path d="M68.7913 1H92.6797V77.4516C92.6797 90.0322 88.9135 99.7097 81.3811 106.484C72.7727 114.333 61.2589 118.258 46.8398 118.258C32.4207 118.258 20.907 114.333 12.2986 106.484C4.76618 99.7097 1 90.0322 1 77.4516V1H24.727V77.4516C24.727 91.1075 32.0979 97.9355 46.8398 97.9355C61.4742 97.9355 68.7913 91.1075 68.7913 77.4516V1Z"/>
<path d="M185.306 56.1613H162.709C162.602 52.7204 161.364 50.3011 158.997 48.9032C156.63 47.3978 152.541 46.6452 146.73 46.6452C138.229 46.6452 133.979 49.1183 133.979 54.0645C133.979 56.9677 136.561 59.1183 141.726 60.5161L169.811 68.4193C181.002 71.5376 186.598 78.6344 186.598 89.7097C186.598 98.4193 183.208 105.462 176.429 110.839C170.08 115.785 160.934 118.258 148.99 118.258C134.355 118.258 123.864 116.108 117.515 111.806C111.274 107.72 107.938 101.108 107.508 91.9677H129.621C130.266 95.5161 131.773 97.8817 134.14 99.0645C136.615 100.247 141.134 100.839 147.698 100.839C158.782 100.839 164.323 98.2043 164.323 92.9355C164.323 89.8172 161.848 87.5054 156.899 86L130.428 77.9355C123.649 75.8925 119.022 73.5269 116.547 70.8387C113.318 67.5054 111.704 62.9892 111.704 57.2903C111.704 47.9355 115.255 40.7312 122.357 35.6774C128.598 31.3763 136.776 29.2258 146.891 29.2258C159.158 29.2258 168.843 31.9677 175.945 37.4516C182.078 42.2903 185.199 48.5269 185.306 56.1613Z"/>
<path d="M276.647 79.5484H219.186C219.508 86.4301 220.584 91.3226 222.414 94.2258C225.534 98.957 230.43 101.323 237.102 101.323C245.387 101.323 250.929 97.8817 253.727 91H275.678C273.203 99.3871 268.361 106.054 261.152 111C254.05 115.839 245.71 118.258 236.133 118.258C223.113 118.258 213.106 113.903 206.112 105.194C199.978 97.5591 196.911 87.5054 196.911 75.0323C196.911 59.871 200.893 48.1505 208.856 39.871C215.85 32.7742 225.05 29.2258 236.456 29.2258C245.172 29.2258 252.812 31.3763 259.376 35.6774C265.94 39.9785 270.621 46 273.419 53.7419C275.678 59.7634 276.808 67.0215 276.808 75.5161C276.808 76.5914 276.754 77.9355 276.647 79.5484ZM253.565 64.871C252.489 52.3978 246.733 46.1613 236.295 46.1613C226.503 46.1613 220.907 52.3978 219.508 64.871H253.565Z"/>
<path d="M292.399 31H314.673V47.2903C317.471 35.2473 325.434 29.2258 338.562 29.2258C340.606 29.2258 342.059 29.2258 342.92 29.2258L343.081 51.1613C340.391 50.6236 337.593 50.3548 334.688 50.3548C327.371 50.3548 322.313 51.6989 319.516 54.3871C316.288 57.3978 314.673 62.8279 314.673 70.6774V116.484H292.399V31Z"/>
<path d="M409.489 66.8064V96.6452H472.116V116.484H385.762V1H469.21V20.8387H409.489V46.9677H464.852V66.8064H409.489Z"/>
<path d="M534.797 73.4193L563.528 116.484H536.896L522.369 89.871L507.842 116.484H481.21L509.779 73.4193L481.855 31H508.488L522.369 56.8064L536.25 31H562.882L534.797 73.4193Z"/>
<path d="M598.867 31V43.2581C604.032 33.9032 611.941 29.2258 622.594 29.2258C627.652 29.2258 632.602 30.4624 637.444 32.9355C642.394 35.4086 646.321 38.6344 649.227 42.6129C655.36 51.1075 658.427 61.6989 658.427 74.3871C658.427 88.043 654.607 99.0645 646.967 107.452C640.403 114.656 632.279 118.258 622.594 118.258C612.049 118.258 604.14 114.226 598.867 106.161V151H576.593V31H598.867ZM617.429 47.7742C611.834 47.7742 607.314 50.1935 603.871 55.0323C600.428 59.7634 598.706 66.0538 598.706 73.9032C598.706 81.6452 600.428 87.8817 603.871 92.6129C607.314 97.3441 611.834 99.7097 617.429 99.7097C623.025 99.7097 627.544 97.3441 630.988 92.6129C634.431 87.8817 636.153 81.6452 636.153 73.9032C636.153 66.0538 634.431 59.7634 630.988 55.0323C627.544 50.1935 623.025 47.7742 617.429 47.7742Z"/>
<path d="M748.576 79.5484H691.115C691.437 86.4301 692.513 91.3226 694.343 94.2258C697.463 98.957 702.359 101.323 709.031 101.323C717.316 101.323 722.858 97.8817 725.656 91H747.607C745.132 99.3871 740.29 106.054 733.081 111C725.979 115.839 717.639 118.258 708.062 118.258C695.042 118.258 685.035 113.903 678.04 105.194C671.907 97.5591 668.84 87.5054 668.84 75.0323C668.84 59.871 672.822 48.1505 680.784 39.871C687.779 32.7742 696.979 29.2258 708.385 29.2258C717.101 29.2258 724.741 31.3763 731.305 35.6774C737.869 39.9785 742.55 46 745.348 53.7419C747.607 59.7634 748.737 67.0215 748.737 75.5161C748.737 76.5914 748.683 77.9355 748.576 79.5484ZM725.494 64.871C724.418 52.3978 718.661 46.1613 708.224 46.1613C698.432 46.1613 692.836 52.3978 691.437 64.871H725.494Z"/>
<path d="M764.328 31H786.602V47.2903C789.4 35.2473 797.363 29.2258 810.491 29.2258C812.535 29.2258 813.988 29.2258 814.849 29.2258L815.01 51.1613C812.32 50.6236 809.522 50.3548 806.617 50.3548C799.3 50.3548 794.242 51.6989 791.445 54.3871C788.216 57.3978 786.602 62.8279 786.602 70.6774V116.484H764.328V31Z"/>
<path d="M848.557 31V116.484H826.282V31H848.557ZM837.258 1.64516C840.163 1.64516 842.584 2.66667 844.521 4.70968C846.566 6.75269 847.588 9.22581 847.588 12.129C847.588 15.0323 846.566 17.5054 844.521 19.5484C842.584 21.4839 840.163 22.4516 837.258 22.4516C834.353 22.4516 831.878 21.4839 829.833 19.5484C827.789 17.5054 826.766 15.0323 826.766 12.129C826.766 9.22581 827.789 6.75269 829.833 4.70968C831.878 2.66667 834.353 1.64516 837.258 1.64516Z"/>
<path d="M944.503 79.5484H887.042C887.365 86.4301 888.441 91.3226 890.27 94.2258C893.391 98.957 898.287 101.323 904.958 101.323C913.244 101.323 918.786 97.8817 921.583 91H943.535C941.06 99.3871 936.218 106.054 929.008 111C921.906 115.839 913.567 118.258 903.99 118.258C890.97 118.258 880.963 113.903 873.968 105.194C867.835 97.5591 864.768 87.5054 864.768 75.0323C864.768 59.871 868.749 48.1505 876.712 39.871C883.706 32.7742 892.907 29.2258 904.313 29.2258C913.029 29.2258 920.669 31.3763 927.233 35.6774C933.797 39.9785 938.478 46 941.275 53.7419C943.535 59.7634 944.665 67.0215 944.665 75.5161C944.665 76.5914 944.611 77.9355 944.503 79.5484ZM921.422 64.871C920.346 52.3978 914.589 46.1613 904.151 46.1613C894.359 46.1613 888.764 52.3978 887.365 64.871H921.422Z"/>
<path d="M960.256 31H982.53V43.0968C988.556 33.8495 997.057 29.2258 1008.03 29.2258C1017.82 29.2258 1025.25 32.129 1030.31 37.9355C1034.61 43.0968 1036.76 50.086 1036.76 58.9032V116.484H1014.65V63.4193C1014.65 53.2043 1009.86 48.0968 1000.28 48.0968C994.905 48.0968 990.601 49.6559 987.372 52.7742C984.144 55.7849 982.53 59.8172 982.53 64.871V116.484H960.256V31Z"/>
<path d="M1129.51 62.2903H1108.36C1107.07 56.6989 1105.19 52.7742 1102.71 50.5161C1100.34 48.2581 1096.96 47.129 1092.54 47.129C1085.87 47.129 1081.24 49.4946 1078.66 54.2258C1075.86 59.7097 1074.47 66.4301 1074.47 74.3871C1074.47 82.4516 1076.03 88.8495 1079.15 93.5806C1082.37 98.2043 1086.79 100.516 1092.38 100.516C1096.79 100.516 1100.18 99.3871 1102.55 97.129C1105.03 94.7634 1106.96 90.8925 1108.36 85.5161H1129.51C1128.43 96.2688 1124.13 104.602 1116.59 110.516C1110.03 115.785 1101.91 118.419 1092.22 118.419C1078.66 118.419 1068.39 114.065 1061.39 105.355C1055.26 97.8279 1052.19 87.6667 1052.19 74.871C1052.19 59.3871 1056.23 47.6667 1064.3 39.7097C1071.29 32.7204 1080.76 29.2258 1092.7 29.2258C1104.11 29.2258 1113.15 32.5054 1119.82 39.0645C1125.52 44.871 1128.75 52.6129 1129.51 62.2903Z"/>
<path d="M1219.4 79.5484H1161.94C1162.26 86.4301 1163.34 91.3226 1165.17 94.2258C1168.29 98.957 1173.18 101.323 1179.86 101.323C1188.14 101.323 1193.68 97.8817 1196.48 91H1218.43C1215.96 99.3871 1211.12 106.054 1203.91 111C1196.8 115.839 1188.46 118.258 1178.89 118.258C1165.87 118.258 1155.86 113.903 1148.87 105.194C1142.73 97.5591 1139.67 87.5054 1139.67 75.0323C1139.67 59.871 1143.65 48.1505 1151.61 39.871C1158.6 32.7742 1167.8 29.2258 1179.21 29.2258C1187.93 29.2258 1195.57 31.3763 1202.13 35.6774C1208.69 39.9785 1213.38 46 1216.17 53.7419C1218.43 59.7634 1219.56 67.0215 1219.56 75.5161C1219.56 76.5914 1219.51 77.9355 1219.4 79.5484ZM1196.32 64.871C1195.24 52.3978 1189.49 46.1613 1179.05 46.1613C1169.26 46.1613 1163.66 52.3978 1162.26 64.871H1196.32Z"/>
<path d="M1266.89 116.484V1H1312.08C1328.97 1 1341.13 5.46237 1348.56 14.3871C1357.92 25.5699 1362.6 40.3548 1362.6 58.7419C1362.6 77.2365 1357.92 92.0215 1348.56 103.097C1341.03 112.021 1328.87 116.484 1312.08 116.484H1266.89ZM1290.61 96.6452H1312.08C1329.94 96.6452 1338.87 84.0107 1338.87 58.7419C1338.87 33.4731 1329.94 20.8387 1312.08 20.8387H1290.61V96.6452Z"/>
<path d="M1453.63 79.5484H1396.17C1396.49 86.4301 1397.57 91.3226 1399.4 94.2258C1402.52 98.957 1407.42 101.323 1414.09 101.323C1422.37 101.323 1427.91 97.8817 1430.71 91H1452.66C1450.19 99.3871 1445.35 106.054 1438.14 111C1431.03 115.839 1422.7 118.258 1413.12 118.258C1400.1 118.258 1390.09 113.903 1383.1 105.194C1376.96 97.5591 1373.9 87.5054 1373.9 75.0323C1373.9 59.871 1377.88 48.1505 1385.84 39.871C1392.83 32.7742 1402.04 29.2258 1413.44 29.2258C1422.16 29.2258 1429.8 31.3763 1436.36 35.6774C1442.93 39.9785 1447.61 46 1450.4 53.7419C1452.66 59.7634 1453.79 67.0215 1453.79 75.5161C1453.79 76.5914 1453.74 77.9355 1453.63 79.5484ZM1430.55 64.871C1429.47 52.3978 1423.72 46.1613 1413.28 46.1613C1403.49 46.1613 1397.89 52.3978 1396.49 64.871H1430.55Z"/>
<path d="M1540.57 56.1613H1517.97C1517.86 52.7204 1516.62 50.3011 1514.26 48.9032C1511.89 47.3978 1507.8 46.6452 1501.99 46.6452C1493.49 46.6452 1489.24 49.1183 1489.24 54.0645C1489.24 56.9677 1491.82 59.1183 1496.98 60.5161L1525.07 68.4193C1536.26 71.5376 1541.86 78.6344 1541.86 89.7097C1541.86 98.4193 1538.47 105.462 1531.69 110.839C1525.34 115.785 1516.19 118.258 1504.25 118.258C1489.61 118.258 1479.12 116.108 1472.77 111.806C1466.53 107.72 1463.2 101.108 1462.77 91.9677H1484.88C1485.53 95.5161 1487.03 97.8817 1489.4 99.0645C1491.87 100.247 1496.39 100.839 1502.96 100.839C1514.04 100.839 1519.58 98.2043 1519.58 92.9355C1519.58 89.8172 1517.11 87.5054 1512.16 86L1485.69 77.9355C1478.91 75.8925 1474.28 73.5269 1471.81 70.8387C1468.58 67.5054 1466.96 62.9892 1466.96 57.2903C1466.96 47.9355 1470.51 40.7312 1477.62 35.6774C1483.86 31.3763 1492.04 29.2258 1502.15 29.2258C1514.42 29.2258 1524.1 31.9677 1531.2 37.4516C1537.34 42.2903 1540.46 48.5269 1540.57 56.1613Z"/>
<path d="M1580.09 31V116.484H1557.82V31H1580.09ZM1568.79 1.64516C1571.7 1.64516 1574.12 2.66667 1576.06 4.70968C1578.1 6.75269 1579.13 9.22581 1579.13 12.129C1579.13 15.0323 1578.1 17.5054 1576.06 19.5484C1574.12 21.4839 1571.7 22.4516 1568.79 22.4516C1565.89 22.4516 1563.41 21.4839 1561.37 19.5484C1559.33 17.5054 1558.3 15.0323 1558.3 12.129C1558.3 9.22581 1559.33 6.75269 1561.37 4.70968C1563.41 2.66667 1565.89 1.64516 1568.79 1.64516Z"/>
<path d="M1655.86 31H1677.01V115.677C1677.01 128.903 1672.87 138.366 1664.58 144.064C1657.59 148.688 1648.01 151 1635.85 151C1623.15 151 1613.47 148.258 1606.8 142.774C1601.31 138.366 1598.46 133.043 1598.24 126.806H1621.16C1622.99 133.473 1628.26 136.806 1636.98 136.806C1642.47 136.806 1647.09 135.086 1650.86 131.645C1654.2 128.634 1655.86 123.957 1655.86 117.613V104.871C1651.78 109.925 1647.96 113.419 1644.4 115.355C1640.85 117.29 1636.55 118.258 1631.49 118.258C1620.41 118.258 1611.64 113.742 1605.18 104.71C1599.48 96.9677 1596.63 87.129 1596.63 75.1935C1596.63 61.1075 1600.45 49.6021 1608.09 40.6774C1614.76 33.043 1622.83 29.2258 1632.3 29.2258C1641.55 29.2258 1649.41 33.6882 1655.86 42.6129V31ZM1636.82 47.7742C1631.44 47.7742 1627.08 50.2473 1623.74 55.1935C1620.52 60.1398 1618.9 66.5914 1618.9 74.5484C1618.9 82.1828 1620.52 88.3118 1623.74 92.9355C1627.08 97.5591 1631.44 99.871 1636.82 99.871C1642.41 99.871 1647.04 97.5054 1650.7 92.7742C1654.14 88.3656 1655.86 82.2365 1655.86 74.3871C1655.86 65.8925 1653.87 59.172 1649.89 54.2258C1646.45 49.9247 1642.09 47.7742 1636.82 47.7742Z"/>
<path d="M1698.1 31H1720.37V43.0968C1726.4 33.8495 1734.9 29.2258 1745.87 29.2258C1755.67 29.2258 1763.09 32.129 1768.15 37.9355C1772.45 43.0968 1774.61 50.086 1774.61 58.9032V116.484H1752.49V63.4193C1752.49 53.2043 1747.7 48.0968 1738.13 48.0968C1732.75 48.0968 1728.44 49.6559 1725.21 52.7742C1721.99 55.7849 1720.37 59.8172 1720.37 64.871V116.484H1698.1V31Z"/>
</mask>
<path d="M68.7913 1H92.6797V77.4516C92.6797 90.0322 88.9135 99.7097 81.3811 106.484C72.7727 114.333 61.2589 118.258 46.8398 118.258C32.4207 118.258 20.907 114.333 12.2986 106.484C4.76618 99.7097 1 90.0322 1 77.4516V1H24.727V77.4516C24.727 91.1075 32.0979 97.9355 46.8398 97.9355C61.4742 97.9355 68.7913 91.1075 68.7913 77.4516V1Z" stroke="#6B79EF" stroke-width="2" mask="url(#path-1-outside-1_492_1726)"/>
<path d="M185.306 56.1613H162.709C162.602 52.7204 161.364 50.3011 158.997 48.9032C156.63 47.3978 152.541 46.6452 146.73 46.6452C138.229 46.6452 133.979 49.1183 133.979 54.0645C133.979 56.9677 136.561 59.1183 141.726 60.5161L169.811 68.4193C181.002 71.5376 186.598 78.6344 186.598 89.7097C186.598 98.4193 183.208 105.462 176.429 110.839C170.08 115.785 160.934 118.258 148.99 118.258C134.355 118.258 123.864 116.108 117.515 111.806C111.274 107.72 107.938 101.108 107.508 91.9677H129.621C130.266 95.5161 131.773 97.8817 134.14 99.0645C136.615 100.247 141.134 100.839 147.698 100.839C158.782 100.839 164.323 98.2043 164.323 92.9355C164.323 89.8172 161.848 87.5054 156.899 86L130.428 77.9355C123.649 75.8925 119.022 73.5269 116.547 70.8387C113.318 67.5054 111.704 62.9892 111.704 57.2903C111.704 47.9355 115.255 40.7312 122.357 35.6774C128.598 31.3763 136.776 29.2258 146.891 29.2258C159.158 29.2258 168.843 31.9677 175.945 37.4516C182.078 42.2903 185.199 48.5269 185.306 56.1613Z" stroke="#6B79EF" stroke-width="2" mask="url(#path-1-outside-1_492_1726)"/>
<path d="M276.647 79.5484H219.186C219.508 86.4301 220.584 91.3226 222.414 94.2258C225.534 98.957 230.43 101.323 237.102 101.323C245.387 101.323 250.929 97.8817 253.727 91H275.678C273.203 99.3871 268.361 106.054 261.152 111C254.05 115.839 245.71 118.258 236.133 118.258C223.113 118.258 213.106 113.903 206.112 105.194C199.978 97.5591 196.911 87.5054 196.911 75.0323C196.911 59.871 200.893 48.1505 208.856 39.871C215.85 32.7742 225.05 29.2258 236.456 29.2258C245.172 29.2258 252.812 31.3763 259.376 35.6774C265.94 39.9785 270.621 46 273.419 53.7419C275.678 59.7634 276.808 67.0215 276.808 75.5161C276.808 76.5914 276.754 77.9355 276.647 79.5484ZM253.565 64.871C252.489 52.3978 246.733 46.1613 236.295 46.1613C226.503 46.1613 220.907 52.3978 219.508 64.871H253.565Z" stroke="#6B79EF" stroke-width="2" mask="url(#path-1-outside-1_492_1726)"/>
<path d="M292.399 31H314.673V47.2903C317.471 35.2473 325.434 29.2258 338.562 29.2258C340.606 29.2258 342.059 29.2258 342.92 29.2258L343.081 51.1613C340.391 50.6236 337.593 50.3548 334.688 50.3548C327.371 50.3548 322.313 51.6989 319.516 54.3871C316.288 57.3978 314.673 62.8279 314.673 70.6774V116.484H292.399V31Z" stroke="#6B79EF" stroke-width="2" mask="url(#path-1-outside-1_492_1726)"/>
<path d="M409.489 66.8064V96.6452H472.116V116.484H385.762V1H469.21V20.8387H409.489V46.9677H464.852V66.8064H409.489Z" stroke="#6B79EF" stroke-width="2" mask="url(#path-1-outside-1_492_1726)"/>
<path d="M534.797 73.4193L563.528 116.484H536.896L522.369 89.871L507.842 116.484H481.21L509.779 73.4193L481.855 31H508.488L522.369 56.8064L536.25 31H562.882L534.797 73.4193Z" stroke="#6B79EF" stroke-width="2" mask="url(#path-1-outside-1_492_1726)"/>
<path d="M598.867 31V43.2581C604.032 33.9032 611.941 29.2258 622.594 29.2258C627.652 29.2258 632.602 30.4624 637.444 32.9355C642.394 35.4086 646.321 38.6344 649.227 42.6129C655.36 51.1075 658.427 61.6989 658.427 74.3871C658.427 88.043 654.607 99.0645 646.967 107.452C640.403 114.656 632.279 118.258 622.594 118.258C612.049 118.258 604.14 114.226 598.867 106.161V151H576.593V31H598.867ZM617.429 47.7742C611.834 47.7742 607.314 50.1935 603.871 55.0323C600.428 59.7634 598.706 66.0538 598.706 73.9032C598.706 81.6452 600.428 87.8817 603.871 92.6129C607.314 97.3441 611.834 99.7097 617.429 99.7097C623.025 99.7097 627.544 97.3441 630.988 92.6129C634.431 87.8817 636.153 81.6452 636.153 73.9032C636.153 66.0538 634.431 59.7634 630.988 55.0323C627.544 50.1935 623.025 47.7742 617.429 47.7742Z" stroke="#6B79EF" stroke-width="2" mask="url(#path-1-outside-1_492_1726)"/>
<path d="M748.576 79.5484H691.115C691.437 86.4301 692.513 91.3226 694.343 94.2258C697.463 98.957 702.359 101.323 709.031 101.323C717.316 101.323 722.858 97.8817 725.656 91H747.607C745.132 99.3871 740.29 106.054 733.081 111C725.979 115.839 717.639 118.258 708.062 118.258C695.042 118.258 685.035 113.903 678.04 105.194C671.907 97.5591 668.84 87.5054 668.84 75.0323C668.84 59.871 672.822 48.1505 680.784 39.871C687.779 32.7742 696.979 29.2258 708.385 29.2258C717.101 29.2258 724.741 31.3763 731.305 35.6774C737.869 39.9785 742.55 46 745.348 53.7419C747.607 59.7634 748.737 67.0215 748.737 75.5161C748.737 76.5914 748.683 77.9355 748.576 79.5484ZM725.494 64.871C724.418 52.3978 718.661 46.1613 708.224 46.1613C698.432 46.1613 692.836 52.3978 691.437 64.871H725.494Z" stroke="#6B79EF" stroke-width="2" mask="url(#path-1-outside-1_492_1726)"/>
<path d="M764.328 31H786.602V47.2903C789.4 35.2473 797.363 29.2258 810.491 29.2258C812.535 29.2258 813.988 29.2258 814.849 29.2258L815.01 51.1613C812.32 50.6236 809.522 50.3548 806.617 50.3548C799.3 50.3548 794.242 51.6989 791.445 54.3871C788.216 57.3978 786.602 62.8279 786.602 70.6774V116.484H764.328V31Z" stroke="#6B79EF" stroke-width="2" mask="url(#path-1-outside-1_492_1726)"/>
<path d="M848.557 31V116.484H826.282V31H848.557ZM837.258 1.64516C840.163 1.64516 842.584 2.66667 844.521 4.70968C846.566 6.75269 847.588 9.22581 847.588 12.129C847.588 15.0323 846.566 17.5054 844.521 19.5484C842.584 21.4839 840.163 22.4516 837.258 22.4516C834.353 22.4516 831.878 21.4839 829.833 19.5484C827.789 17.5054 826.766 15.0323 826.766 12.129C826.766 9.22581 827.789 6.75269 829.833 4.70968C831.878 2.66667 834.353 1.64516 837.258 1.64516Z" stroke="#6B79EF" stroke-width="2" mask="url(#path-1-outside-1_492_1726)"/>
<path d="M944.503 79.5484H887.042C887.365 86.4301 888.441 91.3226 890.27 94.2258C893.391 98.957 898.287 101.323 904.958 101.323C913.244 101.323 918.786 97.8817 921.583 91H943.535C941.06 99.3871 936.218 106.054 929.008 111C921.906 115.839 913.567 118.258 903.99 118.258C890.97 118.258 880.963 113.903 873.968 105.194C867.835 97.5591 864.768 87.5054 864.768 75.0323C864.768 59.871 868.749 48.1505 876.712 39.871C883.706 32.7742 892.907 29.2258 904.313 29.2258C913.029 29.2258 920.669 31.3763 927.233 35.6774C933.797 39.9785 938.478 46 941.275 53.7419C943.535 59.7634 944.665 67.0215 944.665 75.5161C944.665 76.5914 944.611 77.9355 944.503 79.5484ZM921.422 64.871C920.346 52.3978 914.589 46.1613 904.151 46.1613C894.359 46.1613 888.764 52.3978 887.365 64.871H921.422Z" stroke="#6B79EF" stroke-width="2" mask="url(#path-1-outside-1_492_1726)"/>
<path d="M960.256 31H982.53V43.0968C988.556 33.8495 997.057 29.2258 1008.03 29.2258C1017.82 29.2258 1025.25 32.129 1030.31 37.9355C1034.61 43.0968 1036.76 50.086 1036.76 58.9032V116.484H1014.65V63.4193C1014.65 53.2043 1009.86 48.0968 1000.28 48.0968C994.905 48.0968 990.601 49.6559 987.372 52.7742C984.144 55.7849 982.53 59.8172 982.53 64.871V116.484H960.256V31Z" stroke="#6B79EF" stroke-width="2" mask="url(#path-1-outside-1_492_1726)"/>
<path d="M1129.51 62.2903H1108.36C1107.07 56.6989 1105.19 52.7742 1102.71 50.5161C1100.34 48.2581 1096.96 47.129 1092.54 47.129C1085.87 47.129 1081.24 49.4946 1078.66 54.2258C1075.86 59.7097 1074.47 66.4301 1074.47 74.3871C1074.47 82.4516 1076.03 88.8495 1079.15 93.5806C1082.37 98.2043 1086.79 100.516 1092.38 100.516C1096.79 100.516 1100.18 99.3871 1102.55 97.129C1105.03 94.7634 1106.96 90.8925 1108.36 85.5161H1129.51C1128.43 96.2688 1124.13 104.602 1116.59 110.516C1110.03 115.785 1101.91 118.419 1092.22 118.419C1078.66 118.419 1068.39 114.065 1061.39 105.355C1055.26 97.8279 1052.19 87.6667 1052.19 74.871C1052.19 59.3871 1056.23 47.6667 1064.3 39.7097C1071.29 32.7204 1080.76 29.2258 1092.7 29.2258C1104.11 29.2258 1113.15 32.5054 1119.82 39.0645C1125.52 44.871 1128.75 52.6129 1129.51 62.2903Z" stroke="#6B79EF" stroke-width="2" mask="url(#path-1-outside-1_492_1726)"/>
<path d="M1219.4 79.5484H1161.94C1162.26 86.4301 1163.34 91.3226 1165.17 94.2258C1168.29 98.957 1173.18 101.323 1179.86 101.323C1188.14 101.323 1193.68 97.8817 1196.48 91H1218.43C1215.96 99.3871 1211.12 106.054 1203.91 111C1196.8 115.839 1188.46 118.258 1178.89 118.258C1165.87 118.258 1155.86 113.903 1148.87 105.194C1142.73 97.5591 1139.67 87.5054 1139.67 75.0323C1139.67 59.871 1143.65 48.1505 1151.61 39.871C1158.6 32.7742 1167.8 29.2258 1179.21 29.2258C1187.93 29.2258 1195.57 31.3763 1202.13 35.6774C1208.69 39.9785 1213.38 46 1216.17 53.7419C1218.43 59.7634 1219.56 67.0215 1219.56 75.5161C1219.56 76.5914 1219.51 77.9355 1219.4 79.5484ZM1196.32 64.871C1195.24 52.3978 1189.49 46.1613 1179.05 46.1613C1169.26 46.1613 1163.66 52.3978 1162.26 64.871H1196.32Z" stroke="#6B79EF" stroke-width="2" mask="url(#path-1-outside-1_492_1726)"/>
<path d="M1266.89 116.484V1H1312.08C1328.97 1 1341.13 5.46237 1348.56 14.3871C1357.92 25.5699 1362.6 40.3548 1362.6 58.7419C1362.6 77.2365 1357.92 92.0215 1348.56 103.097C1341.03 112.021 1328.87 116.484 1312.08 116.484H1266.89ZM1290.61 96.6452H1312.08C1329.94 96.6452 1338.87 84.0107 1338.87 58.7419C1338.87 33.4731 1329.94 20.8387 1312.08 20.8387H1290.61V96.6452Z" stroke="#6B79EF" stroke-width="2" mask="url(#path-1-outside-1_492_1726)"/>
<path d="M1453.63 79.5484H1396.17C1396.49 86.4301 1397.57 91.3226 1399.4 94.2258C1402.52 98.957 1407.42 101.323 1414.09 101.323C1422.37 101.323 1427.91 97.8817 1430.71 91H1452.66C1450.19 99.3871 1445.35 106.054 1438.14 111C1431.03 115.839 1422.7 118.258 1413.12 118.258C1400.1 118.258 1390.09 113.903 1383.1 105.194C1376.96 97.5591 1373.9 87.5054 1373.9 75.0323C1373.9 59.871 1377.88 48.1505 1385.84 39.871C1392.83 32.7742 1402.04 29.2258 1413.44 29.2258C1422.16 29.2258 1429.8 31.3763 1436.36 35.6774C1442.93 39.9785 1447.61 46 1450.4 53.7419C1452.66 59.7634 1453.79 67.0215 1453.79 75.5161C1453.79 76.5914 1453.74 77.9355 1453.63 79.5484ZM1430.55 64.871C1429.47 52.3978 1423.72 46.1613 1413.28 46.1613C1403.49 46.1613 1397.89 52.3978 1396.49 64.871H1430.55Z" stroke="#6B79EF" stroke-width="2" mask="url(#path-1-outside-1_492_1726)"/>
<path d="M1540.57 56.1613H1517.97C1517.86 52.7204 1516.62 50.3011 1514.26 48.9032C1511.89 47.3978 1507.8 46.6452 1501.99 46.6452C1493.49 46.6452 1489.24 49.1183 1489.24 54.0645C1489.24 56.9677 1491.82 59.1183 1496.98 60.5161L1525.07 68.4193C1536.26 71.5376 1541.86 78.6344 1541.86 89.7097C1541.86 98.4193 1538.47 105.462 1531.69 110.839C1525.34 115.785 1516.19 118.258 1504.25 118.258C1489.61 118.258 1479.12 116.108 1472.77 111.806C1466.53 107.72 1463.2 101.108 1462.77 91.9677H1484.88C1485.53 95.5161 1487.03 97.8817 1489.4 99.0645C1491.87 100.247 1496.39 100.839 1502.96 100.839C1514.04 100.839 1519.58 98.2043 1519.58 92.9355C1519.58 89.8172 1517.11 87.5054 1512.16 86L1485.69 77.9355C1478.91 75.8925 1474.28 73.5269 1471.81 70.8387C1468.58 67.5054 1466.96 62.9892 1466.96 57.2903C1466.96 47.9355 1470.51 40.7312 1477.62 35.6774C1483.86 31.3763 1492.04 29.2258 1502.15 29.2258C1514.42 29.2258 1524.1 31.9677 1531.2 37.4516C1537.34 42.2903 1540.46 48.5269 1540.57 56.1613Z" stroke="#6B79EF" stroke-width="2" mask="url(#path-1-outside-1_492_1726)"/>
<path d="M1580.09 31V116.484H1557.82V31H1580.09ZM1568.79 1.64516C1571.7 1.64516 1574.12 2.66667 1576.06 4.70968C1578.1 6.75269 1579.13 9.22581 1579.13 12.129C1579.13 15.0323 1578.1 17.5054 1576.06 19.5484C1574.12 21.4839 1571.7 22.4516 1568.79 22.4516C1565.89 22.4516 1563.41 21.4839 1561.37 19.5484C1559.33 17.5054 1558.3 15.0323 1558.3 12.129C1558.3 9.22581 1559.33 6.75269 1561.37 4.70968C1563.41 2.66667 1565.89 1.64516 1568.79 1.64516Z" stroke="#6B79EF" stroke-width="2" mask="url(#path-1-outside-1_492_1726)"/>
<path d="M1655.86 31H1677.01V115.677C1677.01 128.903 1672.87 138.366 1664.58 144.064C1657.59 148.688 1648.01 151 1635.85 151C1623.15 151 1613.47 148.258 1606.8 142.774C1601.31 138.366 1598.46 133.043 1598.24 126.806H1621.16C1622.99 133.473 1628.26 136.806 1636.98 136.806C1642.47 136.806 1647.09 135.086 1650.86 131.645C1654.2 128.634 1655.86 123.957 1655.86 117.613V104.871C1651.78 109.925 1647.96 113.419 1644.4 115.355C1640.85 117.29 1636.55 118.258 1631.49 118.258C1620.41 118.258 1611.64 113.742 1605.18 104.71C1599.48 96.9677 1596.63 87.129 1596.63 75.1935C1596.63 61.1075 1600.45 49.6021 1608.09 40.6774C1614.76 33.043 1622.83 29.2258 1632.3 29.2258C1641.55 29.2258 1649.41 33.6882 1655.86 42.6129V31ZM1636.82 47.7742C1631.44 47.7742 1627.08 50.2473 1623.74 55.1935C1620.52 60.1398 1618.9 66.5914 1618.9 74.5484C1618.9 82.1828 1620.52 88.3118 1623.74 92.9355C1627.08 97.5591 1631.44 99.871 1636.82 99.871C1642.41 99.871 1647.04 97.5054 1650.7 92.7742C1654.14 88.3656 1655.86 82.2365 1655.86 74.3871C1655.86 65.8925 1653.87 59.172 1649.89 54.2258C1646.45 49.9247 1642.09 47.7742 1636.82 47.7742Z" stroke="#6B79EF" stroke-width="2" mask="url(#path-1-outside-1_492_1726)"/>
<path d="M1698.1 31H1720.37V43.0968C1726.4 33.8495 1734.9 29.2258 1745.87 29.2258C1755.67 29.2258 1763.09 32.129 1768.15 37.9355C1772.45 43.0968 1774.61 50.086 1774.61 58.9032V116.484H1752.49V63.4193C1752.49 53.2043 1747.7 48.0968 1738.13 48.0968C1732.75 48.0968 1728.44 49.6559 1725.21 52.7742C1721.99 55.7849 1720.37 59.8172 1720.37 64.871V116.484H1698.1V31Z" stroke="#6B79EF" stroke-width="2" mask="url(#path-1-outside-1_492_1726)"/>
</g>
</svg>
