<svg width="619" height="102" viewBox="0 0 619 102" fill="none" xmlns="http://www.w3.org/2000/svg">
<g opacity="0.3">
<mask id="path-1-outside-1_359_1753" maskUnits="userSpaceOnUse" x="0" y="0" width="619" height="102" fill="black">
<rect fill="white" width="619" height="102"/>
<path d="M21.132 57.121V99.4869H1V1H69.8872V17.9188H21.132V40.2022H64.1352V57.121H21.132Z"/>
<path d="M81.6052 26.5846H100.505V40.4773C102.878 30.2068 109.635 25.0715 120.774 25.0715C122.508 25.0715 123.741 25.0715 124.471 25.0715L124.608 43.7785C122.326 43.32 119.952 43.0908 117.487 43.0908C111.278 43.0908 106.987 44.237 104.613 46.5296C101.874 49.0972 100.505 53.7281 100.505 60.4223V99.4869H81.6052V26.5846Z"/>
<path d="M165.946 25.0715C177.906 25.0715 187.082 28.923 193.473 36.6259C199.042 43.2283 201.827 52.0316 201.827 63.0358C201.827 75.6905 198.221 85.4108 191.008 92.1967C184.708 98.0656 176.354 101 165.946 101C153.985 101 144.809 97.1944 138.418 89.5832C132.849 82.889 130.064 74.0399 130.064 63.0358C130.064 50.4727 133.67 40.7983 140.883 34.0124C147.183 28.0518 155.537 25.0715 165.946 25.0715ZM165.946 40.3398C160.833 40.3398 156.724 42.4489 153.62 46.6671C150.516 50.7937 148.963 56.2499 148.963 63.0358C148.963 70.3718 150.698 76.149 154.168 80.3673C157.272 83.9436 161.198 85.7318 165.946 85.7318C171.058 85.7318 175.167 83.6685 178.271 79.542C181.467 75.3237 183.065 69.8216 183.065 63.0358C183.065 55.7914 181.284 50.0601 177.723 45.8418C174.619 42.1738 170.693 40.3398 165.946 40.3398Z"/>
<path d="M215.749 26.5846H234.649V36.901C239.762 29.0147 246.974 25.0715 256.287 25.0715C264.596 25.0715 270.895 27.5475 275.187 32.4993C278.839 36.901 280.665 42.8615 280.665 50.381V99.4869H261.902V54.2325C261.902 45.5209 257.839 41.1651 249.713 41.1651C245.148 41.1651 241.496 42.4947 238.757 45.1541C236.018 47.7217 234.649 51.1605 234.649 55.4704V99.4869H215.749V26.5846Z"/>
<path d="M332.376 26.5846V39.1018H319.64V79.6795C319.64 82.3388 320.096 84.1729 321.009 85.1816C322.013 86.1903 323.794 86.6946 326.35 86.6946C328.45 86.6946 331.144 85.8693 334.43 84.2187C334.704 84.0353 334.933 83.8978 335.115 83.8061L337.306 96.7359C331.554 99.5786 325.528 101 319.229 101C306.903 101 300.74 95.3145 300.74 83.9436V39.1018H291.427V26.5846H300.74V14.4801L319.64 3.61348V26.5846H332.376Z"/>
<path d="M379.895 59.0468V73.2146H346.068V59.0468H379.895Z"/>
<path d="M456.629 67.9876H407.873C408.147 73.8565 409.06 78.0289 410.612 80.5048C413.26 84.5397 417.414 86.5571 423.075 86.5571C430.105 86.5571 434.807 83.6227 437.181 77.7538H455.807C453.707 84.9065 449.598 90.5919 443.481 94.8102C437.455 98.9367 430.379 101 422.253 101C411.206 101 402.715 97.2861 396.78 89.8583C391.576 83.3476 388.974 74.7735 388.974 64.1362C388.974 51.2063 392.352 41.2109 399.108 34.1499C405.043 28.0977 412.849 25.0715 422.527 25.0715C429.923 25.0715 436.405 26.9055 441.975 30.5736C447.544 34.2416 451.516 39.3769 453.889 45.9794C455.807 51.1146 456.765 57.3045 456.765 64.5488C456.765 65.4658 456.72 66.6121 456.629 67.9876ZM437.044 55.4704C436.131 44.8331 431.247 39.5144 422.39 39.5144C414.082 39.5144 409.334 44.8331 408.147 55.4704H437.044Z"/>
<path d="M469.994 26.5846H488.894V36.901C494.007 29.0147 501.219 25.0715 510.532 25.0715C518.841 25.0715 525.141 27.5475 529.432 32.4993C533.084 36.901 534.91 42.8615 534.91 50.381V99.4869H516.147V54.2325C516.147 45.5209 512.084 41.1651 503.958 41.1651C499.393 41.1651 495.741 42.4947 493.002 45.1541C490.263 47.7217 488.894 51.1605 488.894 55.4704V99.4869H469.994V26.5846Z"/>
<path d="M617.162 1V99.4869H598.262V91.3714C593.88 97.7905 587.26 101 578.404 101C568.817 101 561.102 96.9652 555.259 88.8955C550.237 82.0179 547.727 73.4438 547.727 63.1733C547.727 50.9771 550.922 41.3485 557.313 34.2875C562.883 28.1435 569.867 25.0715 578.267 25.0715C587.123 25.0715 593.788 28.4645 598.262 35.2503V1H617.162ZM582.513 40.6149C577.765 40.6149 573.93 42.6781 571.009 46.8047C568.087 50.9312 566.626 56.3416 566.626 63.0358C566.626 69.6382 568.041 75.0028 570.872 79.1293C573.793 83.1641 577.674 85.1816 582.513 85.1816C587.352 85.1816 591.186 83.1641 594.017 79.1293C596.938 75.0945 598.399 69.7299 598.399 63.0358C598.399 56.2499 596.938 50.8395 594.017 46.8047C591.095 42.6781 587.26 40.6149 582.513 40.6149Z"/>
</mask>
<path d="M21.132 57.121V99.4869H1V1H69.8872V17.9188H21.132V40.2022H64.1352V57.121H21.132Z" stroke="#6B79EF" stroke-width="2" mask="url(#path-1-outside-1_359_1753)"/>
<path d="M81.6052 26.5846H100.505V40.4773C102.878 30.2068 109.635 25.0715 120.774 25.0715C122.508 25.0715 123.741 25.0715 124.471 25.0715L124.608 43.7785C122.326 43.32 119.952 43.0908 117.487 43.0908C111.278 43.0908 106.987 44.237 104.613 46.5296C101.874 49.0972 100.505 53.7281 100.505 60.4223V99.4869H81.6052V26.5846Z" stroke="#6B79EF" stroke-width="2" mask="url(#path-1-outside-1_359_1753)"/>
<path d="M165.946 25.0715C177.906 25.0715 187.082 28.923 193.473 36.6259C199.042 43.2283 201.827 52.0316 201.827 63.0358C201.827 75.6905 198.221 85.4108 191.008 92.1967C184.708 98.0656 176.354 101 165.946 101C153.985 101 144.809 97.1944 138.418 89.5832C132.849 82.889 130.064 74.0399 130.064 63.0358C130.064 50.4727 133.67 40.7983 140.883 34.0124C147.183 28.0518 155.537 25.0715 165.946 25.0715ZM165.946 40.3398C160.833 40.3398 156.724 42.4489 153.62 46.6671C150.516 50.7937 148.963 56.2499 148.963 63.0358C148.963 70.3718 150.698 76.149 154.168 80.3673C157.272 83.9436 161.198 85.7318 165.946 85.7318C171.058 85.7318 175.167 83.6685 178.271 79.542C181.467 75.3237 183.065 69.8216 183.065 63.0358C183.065 55.7914 181.284 50.0601 177.723 45.8418C174.619 42.1738 170.693 40.3398 165.946 40.3398Z" stroke="#6B79EF" stroke-width="2" mask="url(#path-1-outside-1_359_1753)"/>
<path d="M215.749 26.5846H234.649V36.901C239.762 29.0147 246.974 25.0715 256.287 25.0715C264.596 25.0715 270.895 27.5475 275.187 32.4993C278.839 36.901 280.665 42.8615 280.665 50.381V99.4869H261.902V54.2325C261.902 45.5209 257.839 41.1651 249.713 41.1651C245.148 41.1651 241.496 42.4947 238.757 45.1541C236.018 47.7217 234.649 51.1605 234.649 55.4704V99.4869H215.749V26.5846Z" stroke="#6B79EF" stroke-width="2" mask="url(#path-1-outside-1_359_1753)"/>
<path d="M332.376 26.5846V39.1018H319.64V79.6795C319.64 82.3388 320.096 84.1729 321.009 85.1816C322.013 86.1903 323.794 86.6946 326.35 86.6946C328.45 86.6946 331.144 85.8693 334.43 84.2187C334.704 84.0353 334.933 83.8978 335.115 83.8061L337.306 96.7359C331.554 99.5786 325.528 101 319.229 101C306.903 101 300.74 95.3145 300.74 83.9436V39.1018H291.427V26.5846H300.74V14.4801L319.64 3.61348V26.5846H332.376Z" stroke="#6B79EF" stroke-width="2" mask="url(#path-1-outside-1_359_1753)"/>
<path d="M379.895 59.0468V73.2146H346.068V59.0468H379.895Z" stroke="#6B79EF" stroke-width="2" mask="url(#path-1-outside-1_359_1753)"/>
<path d="M456.629 67.9876H407.873C408.147 73.8565 409.06 78.0289 410.612 80.5048C413.26 84.5397 417.414 86.5571 423.075 86.5571C430.105 86.5571 434.807 83.6227 437.181 77.7538H455.807C453.707 84.9065 449.598 90.5919 443.481 94.8102C437.455 98.9367 430.379 101 422.253 101C411.206 101 402.715 97.2861 396.78 89.8583C391.576 83.3476 388.974 74.7735 388.974 64.1362C388.974 51.2063 392.352 41.2109 399.108 34.1499C405.043 28.0977 412.849 25.0715 422.527 25.0715C429.923 25.0715 436.405 26.9055 441.975 30.5736C447.544 34.2416 451.516 39.3769 453.889 45.9794C455.807 51.1146 456.765 57.3045 456.765 64.5488C456.765 65.4658 456.72 66.6121 456.629 67.9876ZM437.044 55.4704C436.131 44.8331 431.247 39.5144 422.39 39.5144C414.082 39.5144 409.334 44.8331 408.147 55.4704H437.044Z" stroke="#6B79EF" stroke-width="2" mask="url(#path-1-outside-1_359_1753)"/>
<path d="M469.994 26.5846H488.894V36.901C494.007 29.0147 501.219 25.0715 510.532 25.0715C518.841 25.0715 525.141 27.5475 529.432 32.4993C533.084 36.901 534.91 42.8615 534.91 50.381V99.4869H516.147V54.2325C516.147 45.5209 512.084 41.1651 503.958 41.1651C499.393 41.1651 495.741 42.4947 493.002 45.1541C490.263 47.7217 488.894 51.1605 488.894 55.4704V99.4869H469.994V26.5846Z" stroke="#6B79EF" stroke-width="2" mask="url(#path-1-outside-1_359_1753)"/>
<path d="M617.162 1V99.4869H598.262V91.3714C593.88 97.7905 587.26 101 578.404 101C568.817 101 561.102 96.9652 555.259 88.8955C550.237 82.0179 547.727 73.4438 547.727 63.1733C547.727 50.9771 550.922 41.3485 557.313 34.2875C562.883 28.1435 569.867 25.0715 578.267 25.0715C587.123 25.0715 593.788 28.4645 598.262 35.2503V1H617.162ZM582.513 40.6149C577.765 40.6149 573.93 42.6781 571.009 46.8047C568.087 50.9312 566.626 56.3416 566.626 63.0358C566.626 69.6382 568.041 75.0028 570.872 79.1293C573.793 83.1641 577.674 85.1816 582.513 85.1816C587.352 85.1816 591.186 83.1641 594.017 79.1293C596.938 75.0945 598.399 69.7299 598.399 63.0358C598.399 56.2499 596.938 50.8395 594.017 46.8047C591.095 42.6781 587.26 40.6149 582.513 40.6149Z" stroke="#6B79EF" stroke-width="2" mask="url(#path-1-outside-1_359_1753)"/>
</g>
</svg>
