<svg width="421" height="102" viewBox="0 0 421 102" fill="none" xmlns="http://www.w3.org/2000/svg">
<path opacity="0.3" d="M21.2201 99.9869H21.7201V99.4869V27.2457L38.4771 99.5997L38.5668 99.9869H38.9642H59.1843H59.5832L59.6718 99.5981L76.1534 27.3128V99.4869V99.9869H76.6534H96.8735H97.3735V99.4869V1V0.5H96.8735H66.337H65.9348L65.8486 0.892896L49.1335 77.1138L31.7488 0.88882L31.6602 0.5H31.2613H1H0.5V1V99.4869V99.9869H1H21.2201ZM172.97 92.5633L172.972 92.5616C180.343 85.6568 183.997 75.7885 183.997 63.0358C183.997 51.9473 181.177 43.0195 175.489 36.3046C168.956 28.4657 159.586 24.5715 147.458 24.5715C136.904 24.5715 128.382 27.5832 121.944 33.648C114.573 40.5521 110.92 50.3738 110.92 63.0358C110.92 74.1257 113.74 83.0982 119.426 89.9038L119.428 89.9056C125.962 97.6527 135.331 101.5 147.458 101.5C158.01 101.5 166.531 98.5353 172.97 92.5633ZM135.477 46.9686L135.48 46.9643C138.506 42.8704 142.485 40.8398 147.458 40.8398C152.078 40.8398 155.882 42.608 158.906 46.1652C162.385 50.2682 164.152 55.8726 164.152 63.0358C164.152 69.7432 162.567 75.1298 159.44 79.2392L159.439 79.2405C156.415 83.2431 152.435 85.2318 147.458 85.2318C142.835 85.2318 139.031 83.5071 136.01 80.0436C132.624 75.9419 130.902 70.2923 130.902 63.0358C130.902 56.3247 132.443 50.9846 135.477 46.9686ZM197.48 0.5H196.98V1V99.4869V99.9869H197.48H216.462H216.962V99.4869V92.8995C221.458 98.6432 227.964 101.5 236.407 101.5C244.894 101.5 252.043 98.3216 257.822 91.9834L257.822 91.9831C264.435 84.7181 267.718 75.0511 267.718 63.0358C267.718 52.4997 265.175 43.6794 260.058 36.6078C254.277 28.5902 246.377 24.5715 236.407 24.5715C228.034 24.5715 221.531 27.4789 216.962 33.3136V1V0.5H216.462H197.48ZM243.43 78.9728L243.429 78.9744C240.68 82.7873 236.98 84.6816 232.28 84.6816C227.485 84.6816 223.74 82.7844 220.994 78.9744C218.232 75.1442 216.824 69.8947 216.824 63.1733C216.824 56.3591 218.233 51.0647 220.993 47.2355C223.836 43.3265 227.585 41.39 232.28 41.39C236.975 41.39 240.675 43.3258 243.426 47.2302L243.43 47.2363C246.283 51.1597 247.736 56.4557 247.736 63.1733C247.736 69.7975 246.284 75.0483 243.43 78.9728ZM300.251 26.5846V26.0846H299.751H280.769H280.269V26.5846V99.4869V99.9869H280.769H299.751H300.251V99.4869V26.5846ZM283.442 17.1721L283.451 17.1814C285.29 18.9231 287.523 19.7944 290.123 19.7944C292.722 19.7944 294.916 18.9225 296.666 17.172C298.503 15.3354 299.426 13.0989 299.426 10.4911C299.426 7.88556 298.504 5.65071 296.671 3.81504C294.923 1.97273 292.729 1.05021 290.123 1.05021C287.515 1.05021 285.278 1.97354 283.442 3.81013C281.605 5.64673 280.682 7.88324 280.682 10.4911C280.682 13.0989 281.605 15.3354 283.442 17.1721ZM337.863 1V0.5H337.363H318.381H317.881V1V99.4869V99.9869H318.381H337.363H337.863V99.4869V1ZM419.129 68.4876H419.597L419.628 68.0209C419.72 66.6392 419.766 65.481 419.766 64.5488C419.766 57.2638 418.799 51.012 416.847 45.8063C414.428 39.1089 410.373 33.8853 404.685 30.1555C399.001 26.4282 392.393 24.5715 384.879 24.5715C375.045 24.5715 367.069 27.6374 361.001 33.7991L360.997 33.8035C354.096 40.9844 350.678 51.1198 350.678 64.1362C350.678 74.8556 353.313 83.5499 358.629 90.1713C364.701 97.7376 373.384 101.5 384.603 101.5C392.853 101.5 400.061 99.4128 406.206 95.2233L406.207 95.2224C412.446 90.9391 416.642 85.158 418.783 77.8952L418.972 77.2538H418.304H399.597H399.26L399.133 77.5656C397.975 80.4163 396.262 82.5277 394.003 83.9316C391.739 85.3379 388.891 86.0571 385.429 86.0571C379.879 86.0571 375.882 84.0991 373.332 80.2344C371.892 77.9447 370.99 74.0571 370.686 68.4876H419.129ZM384.741 40.0144C389.083 40.0144 392.387 41.3086 394.724 43.8424C396.992 46.3011 398.407 49.9878 398.91 54.9704H370.999C371.628 49.9887 373.072 46.2985 375.278 43.8372C377.552 41.3018 380.684 40.0144 384.741 40.0144Z" stroke="#6B79EF"/>
</svg>
