<svg width="817" height="152" viewBox="0 0 817 152" fill="none" xmlns="http://www.w3.org/2000/svg">
<g opacity="0.3">
<mask id="path-1-outside-1_359_1823" maskUnits="userSpaceOnUse" x="0" y="0" width="817" height="152" fill="black">
<rect fill="white" width="817" height="152"/>
<path d="M97.1211 100.628L111.627 114.975L99.1934 127.089L83.8905 111.946C76.0266 116.303 66.6748 118.535 55.8353 118.641C39.7885 118.641 26.8236 113.487 16.9405 103.179C6.3135 91.9139 1 77.4612 1 59.8204C1 42.2859 6.3135 27.8332 16.9405 16.4623C26.6111 6.15409 39.6291 1 55.9947 1C72.254 1 85.2189 6.15409 94.8895 16.4623C105.516 27.9394 110.83 42.3921 110.83 59.8204C110.83 75.5484 106.632 88.7258 98.237 99.3528L97.1211 100.628ZM81.1807 84.6876L81.6589 83.7311C85.4846 77.2487 87.3974 69.2253 87.3974 59.661C87.3974 47.2274 84.1562 37.4506 77.6738 30.3305C72.0414 24.1668 64.8151 21.085 55.9947 21.085C45.7928 21.085 37.7694 25.0701 31.9245 33.0404C26.9299 39.9479 24.4325 48.8746 24.4325 59.8204C24.4325 72.4665 27.6737 82.2965 34.1562 89.3103C39.7885 95.474 47.068 98.5558 55.9947 98.5558C60.2455 98.5558 64.2837 97.8119 68.1095 96.3241L54.8789 82.9341L67.3124 70.8193L81.1807 84.6876Z"/>
<path d="M195.559 93.9331H152.838L145.187 116.887H121.276L161.765 2.75346H187.748L227.28 116.887H203.051L195.559 93.9331ZM189.182 74.3262L174.358 29.6929L159.374 74.3262H189.182Z"/>
<path d="M320.305 22.3603V116.887H296.873V22.3603H262.123V2.75346H353.462V22.3603H320.305Z"/>
<path d="M438.985 80.3836H382.237C382.556 87.1849 383.618 92.0202 385.425 94.8895C388.507 99.5654 393.342 101.903 399.931 101.903C408.113 101.903 413.586 98.5027 416.349 91.7014H438.028C435.584 99.9904 430.802 106.579 423.682 111.468C416.668 116.25 408.432 118.641 398.974 118.641C386.116 118.641 376.232 114.337 369.325 105.729C363.268 98.1839 360.239 88.2476 360.239 75.9203C360.239 60.9362 364.171 49.3528 372.035 41.17C378.942 34.1562 388.028 30.6493 399.293 30.6493C407.901 30.6493 415.446 32.7747 421.929 37.0255C428.411 41.2763 433.034 47.2274 435.797 54.8789C438.028 60.83 439.144 68.0032 439.144 76.3985C439.144 77.4612 439.091 78.7896 438.985 80.3836ZM416.19 65.8778C415.127 53.5505 409.442 47.3868 399.134 47.3868C389.463 47.3868 383.937 53.5505 382.556 65.8778H416.19Z"/>
<path d="M524.839 57.2699H502.523C502.416 53.8693 501.194 51.4782 498.856 50.0967C496.518 48.6089 492.48 47.865 486.742 47.865C478.346 47.865 474.149 50.3092 474.149 55.1977C474.149 58.067 476.699 60.1923 481.8 61.5739L509.536 69.3847C520.589 72.4665 526.115 79.4803 526.115 90.4261C526.115 99.034 522.767 105.995 516.072 111.308C509.802 116.197 500.769 118.641 488.973 118.641C474.521 118.641 464.159 116.515 457.889 112.265C451.726 108.226 448.431 101.691 448.006 92.6578H469.845C470.482 96.1647 471.97 98.5027 474.308 99.6716C476.752 100.841 481.216 101.425 487.698 101.425C498.644 101.425 504.117 98.8215 504.117 93.6142C504.117 90.5324 501.672 88.2476 496.784 86.7598L470.642 78.7896C463.947 76.7705 459.377 74.4325 456.933 71.7758C453.745 68.4814 452.151 64.0181 452.151 58.3858C452.151 49.1403 455.658 42.0202 462.671 37.0255C468.835 32.7747 476.912 30.6493 486.901 30.6493C499.016 30.6493 508.58 33.3592 515.594 38.779C521.651 43.5611 524.733 49.7248 524.839 57.2699Z"/>
<path d="M581.571 32.4028V46.9086H566.747V93.9331C566.747 97.0149 567.278 99.1403 568.341 100.309C569.51 101.478 571.582 102.063 574.557 102.063C577.002 102.063 580.137 101.106 583.962 99.1934C584.281 98.9809 584.547 98.8215 584.759 98.7152L587.31 113.699C580.615 116.994 573.601 118.641 566.268 118.641C551.922 118.641 544.749 112.052 544.749 98.8746V46.9086H533.909V32.4028H544.749V18.3751L566.747 5.78215V32.4028H581.571Z"/>
<path d="M623.81 32.4028V116.887H601.812V32.4028H623.81ZM612.651 3.39108C615.521 3.39108 617.912 4.40064 619.825 6.41977C621.844 8.4389 622.853 10.8831 622.853 13.7524C622.853 16.6217 621.844 19.0659 619.825 21.085C617.912 22.9979 615.521 23.9543 612.651 23.9543C609.782 23.9543 607.338 22.9979 605.319 21.085C603.3 19.0659 602.29 16.6217 602.29 13.7524C602.29 10.8831 603.3 8.4389 605.319 6.41977C607.338 4.40064 609.782 3.39108 612.651 3.39108Z"/>
<path d="M645.08 32.4028H667.078V44.3581C673.029 35.2189 681.425 30.6493 692.264 30.6493C701.935 30.6493 709.267 33.5186 714.262 39.2572C718.513 44.3581 720.638 51.2657 720.638 59.9798V116.887H698.8V64.4431C698.8 54.3475 694.071 49.2997 684.613 49.2997C679.299 49.2997 675.049 50.8406 671.86 53.9224C668.672 56.898 667.078 60.8831 667.078 65.8778V116.887H645.08V32.4028Z"/>
<path d="M794.377 32.4028H815.259V116.09C815.259 129.162 811.167 138.513 802.985 144.146C796.077 148.715 786.619 151 774.611 151C762.071 151 752.506 148.29 745.918 142.87C740.498 138.513 737.682 133.253 737.469 127.089H760.105C761.911 133.678 767.119 136.972 775.726 136.972C781.146 136.972 785.716 135.272 789.435 131.871C792.73 128.896 794.377 124.273 794.377 118.003V105.41C790.339 110.405 786.566 113.859 783.059 115.772C779.552 117.684 775.301 118.641 770.307 118.641C759.361 118.641 750.7 114.177 744.324 105.251C738.691 97.5994 735.875 87.8757 735.875 76.0797C735.875 62.1583 739.648 50.7875 747.193 41.9671C753.782 34.4219 761.752 30.6493 771.104 30.6493C780.243 30.6493 788.001 35.0595 794.377 43.8799V32.4028ZM775.567 48.9809C770.253 48.9809 765.95 51.4251 762.655 56.3135C759.467 61.2019 757.873 67.5781 757.873 75.4421C757.873 82.9873 759.467 89.0446 762.655 93.6142C765.95 98.1839 770.253 100.469 775.567 100.469C781.093 100.469 785.663 98.1307 789.276 93.4548C792.676 89.0978 794.377 83.0404 794.377 75.2827C794.377 66.8874 792.411 60.2455 788.479 55.3571C785.078 51.1063 780.774 48.9809 775.567 48.9809Z"/>
</mask>
<path d="M97.1211 100.628L111.627 114.975L99.1934 127.089L83.8905 111.946C76.0266 116.303 66.6748 118.535 55.8353 118.641C39.7885 118.641 26.8236 113.487 16.9405 103.179C6.3135 91.9139 1 77.4612 1 59.8204C1 42.2859 6.3135 27.8332 16.9405 16.4623C26.6111 6.15409 39.6291 1 55.9947 1C72.254 1 85.2189 6.15409 94.8895 16.4623C105.516 27.9394 110.83 42.3921 110.83 59.8204C110.83 75.5484 106.632 88.7258 98.237 99.3528L97.1211 100.628ZM81.1807 84.6876L81.6589 83.7311C85.4846 77.2487 87.3974 69.2253 87.3974 59.661C87.3974 47.2274 84.1562 37.4506 77.6738 30.3305C72.0414 24.1668 64.8151 21.085 55.9947 21.085C45.7928 21.085 37.7694 25.0701 31.9245 33.0404C26.9299 39.9479 24.4325 48.8746 24.4325 59.8204C24.4325 72.4665 27.6737 82.2965 34.1562 89.3103C39.7885 95.474 47.068 98.5558 55.9947 98.5558C60.2455 98.5558 64.2837 97.8119 68.1095 96.3241L54.8789 82.9341L67.3124 70.8193L81.1807 84.6876Z" stroke="#6B79EF" stroke-width="2" mask="url(#path-1-outside-1_359_1823)"/>
<path d="M195.559 93.9331H152.838L145.187 116.887H121.276L161.765 2.75346H187.748L227.28 116.887H203.051L195.559 93.9331ZM189.182 74.3262L174.358 29.6929L159.374 74.3262H189.182Z" stroke="#6B79EF" stroke-width="2" mask="url(#path-1-outside-1_359_1823)"/>
<path d="M320.305 22.3603V116.887H296.873V22.3603H262.123V2.75346H353.462V22.3603H320.305Z" stroke="#6B79EF" stroke-width="2" mask="url(#path-1-outside-1_359_1823)"/>
<path d="M438.985 80.3836H382.237C382.556 87.1849 383.618 92.0202 385.425 94.8895C388.507 99.5654 393.342 101.903 399.931 101.903C408.113 101.903 413.586 98.5027 416.349 91.7014H438.028C435.584 99.9904 430.802 106.579 423.682 111.468C416.668 116.25 408.432 118.641 398.974 118.641C386.116 118.641 376.232 114.337 369.325 105.729C363.268 98.1839 360.239 88.2476 360.239 75.9203C360.239 60.9362 364.171 49.3528 372.035 41.17C378.942 34.1562 388.028 30.6493 399.293 30.6493C407.901 30.6493 415.446 32.7747 421.929 37.0255C428.411 41.2763 433.034 47.2274 435.797 54.8789C438.028 60.83 439.144 68.0032 439.144 76.3985C439.144 77.4612 439.091 78.7896 438.985 80.3836ZM416.19 65.8778C415.127 53.5505 409.442 47.3868 399.134 47.3868C389.463 47.3868 383.937 53.5505 382.556 65.8778H416.19Z" stroke="#6B79EF" stroke-width="2" mask="url(#path-1-outside-1_359_1823)"/>
<path d="M524.839 57.2699H502.523C502.416 53.8693 501.194 51.4782 498.856 50.0967C496.518 48.6089 492.48 47.865 486.742 47.865C478.346 47.865 474.149 50.3092 474.149 55.1977C474.149 58.067 476.699 60.1923 481.8 61.5739L509.536 69.3847C520.589 72.4665 526.115 79.4803 526.115 90.4261C526.115 99.034 522.767 105.995 516.072 111.308C509.802 116.197 500.769 118.641 488.973 118.641C474.521 118.641 464.159 116.515 457.889 112.265C451.726 108.226 448.431 101.691 448.006 92.6578H469.845C470.482 96.1647 471.97 98.5027 474.308 99.6716C476.752 100.841 481.216 101.425 487.698 101.425C498.644 101.425 504.117 98.8215 504.117 93.6142C504.117 90.5324 501.672 88.2476 496.784 86.7598L470.642 78.7896C463.947 76.7705 459.377 74.4325 456.933 71.7758C453.745 68.4814 452.151 64.0181 452.151 58.3858C452.151 49.1403 455.658 42.0202 462.671 37.0255C468.835 32.7747 476.912 30.6493 486.901 30.6493C499.016 30.6493 508.58 33.3592 515.594 38.779C521.651 43.5611 524.733 49.7248 524.839 57.2699Z" stroke="#6B79EF" stroke-width="2" mask="url(#path-1-outside-1_359_1823)"/>
<path d="M581.571 32.4028V46.9086H566.747V93.9331C566.747 97.0149 567.278 99.1403 568.341 100.309C569.51 101.478 571.582 102.063 574.557 102.063C577.002 102.063 580.137 101.106 583.962 99.1934C584.281 98.9809 584.547 98.8215 584.759 98.7152L587.31 113.699C580.615 116.994 573.601 118.641 566.268 118.641C551.922 118.641 544.749 112.052 544.749 98.8746V46.9086H533.909V32.4028H544.749V18.3751L566.747 5.78215V32.4028H581.571Z" stroke="#6B79EF" stroke-width="2" mask="url(#path-1-outside-1_359_1823)"/>
<path d="M623.81 32.4028V116.887H601.812V32.4028H623.81ZM612.651 3.39108C615.521 3.39108 617.912 4.40064 619.825 6.41977C621.844 8.4389 622.853 10.8831 622.853 13.7524C622.853 16.6217 621.844 19.0659 619.825 21.085C617.912 22.9979 615.521 23.9543 612.651 23.9543C609.782 23.9543 607.338 22.9979 605.319 21.085C603.3 19.0659 602.29 16.6217 602.29 13.7524C602.29 10.8831 603.3 8.4389 605.319 6.41977C607.338 4.40064 609.782 3.39108 612.651 3.39108Z" stroke="#6B79EF" stroke-width="2" mask="url(#path-1-outside-1_359_1823)"/>
<path d="M645.08 32.4028H667.078V44.3581C673.029 35.2189 681.425 30.6493 692.264 30.6493C701.935 30.6493 709.267 33.5186 714.262 39.2572C718.513 44.3581 720.638 51.2657 720.638 59.9798V116.887H698.8V64.4431C698.8 54.3475 694.071 49.2997 684.613 49.2997C679.299 49.2997 675.049 50.8406 671.86 53.9224C668.672 56.898 667.078 60.8831 667.078 65.8778V116.887H645.08V32.4028Z" stroke="#6B79EF" stroke-width="2" mask="url(#path-1-outside-1_359_1823)"/>
<path d="M794.377 32.4028H815.259V116.09C815.259 129.162 811.167 138.513 802.985 144.146C796.077 148.715 786.619 151 774.611 151C762.071 151 752.506 148.29 745.918 142.87C740.498 138.513 737.682 133.253 737.469 127.089H760.105C761.911 133.678 767.119 136.972 775.726 136.972C781.146 136.972 785.716 135.272 789.435 131.871C792.73 128.896 794.377 124.273 794.377 118.003V105.41C790.339 110.405 786.566 113.859 783.059 115.772C779.552 117.684 775.301 118.641 770.307 118.641C759.361 118.641 750.7 114.177 744.324 105.251C738.691 97.5994 735.875 87.8757 735.875 76.0797C735.875 62.1583 739.648 50.7875 747.193 41.9671C753.782 34.4219 761.752 30.6493 771.104 30.6493C780.243 30.6493 788.001 35.0595 794.377 43.8799V32.4028ZM775.567 48.9809C770.253 48.9809 765.95 51.4251 762.655 56.3135C759.467 61.2019 757.873 67.5781 757.873 75.4421C757.873 82.9873 759.467 89.0446 762.655 93.6142C765.95 98.1839 770.253 100.469 775.567 100.469C781.093 100.469 785.663 98.1307 789.276 93.4548C792.676 89.0978 794.377 83.0404 794.377 75.2827C794.377 66.8874 792.411 60.2455 788.479 55.3571C785.078 51.1063 780.774 48.9809 775.567 48.9809Z" stroke="#6B79EF" stroke-width="2" mask="url(#path-1-outside-1_359_1823)"/>
</g>
</svg>
